%TF.GenerationSoftware,KiCad,Pcbnew,(6.0.0-0)*%
%TF.CreationDate,2022-01-12T00:44:37+05:30*%
%TF.ProjectId,pre,7072652e-6b69-4636-9164-5f7063625858,rev?*%
%TF.SameCoordinates,Original*%
%TF.FileFunction,Copper,L1,Top*%
%TF.FilePolarity,Positive*%
%FSLAX46Y46*%
G04 Gerber Fmt 4.6, Leading zero omitted, Abs format (unit mm)*
G04 Created by KiCad (PCBNEW (6.0.0-0)) date 2022-01-12 00:44:37*
%MOMM*%
%LPD*%
G01*
G04 APERTURE LIST*
%TA.AperFunction,ComponentPad*%
%ADD10R,1.930000X1.830000*%
%TD*%
%TA.AperFunction,ComponentPad*%
%ADD11C,2.130000*%
%TD*%
%TA.AperFunction,WasherPad*%
%ADD12C,4.000000*%
%TD*%
%TA.AperFunction,ComponentPad*%
%ADD13C,1.800000*%
%TD*%
%TA.AperFunction,ComponentPad*%
%ADD14R,1.800000X1.800000*%
%TD*%
%TA.AperFunction,ComponentPad*%
%ADD15R,1.700000X1.700000*%
%TD*%
%TA.AperFunction,ComponentPad*%
%ADD16O,1.700000X1.700000*%
%TD*%
%TA.AperFunction,ViaPad*%
%ADD17C,0.800000*%
%TD*%
%TA.AperFunction,Conductor*%
%ADD18C,0.200000*%
%TD*%
G04 APERTURE END LIST*
D10*
%TO.P,Out2,S*%
%TO.N,GND*%
X93500000Y-116670000D03*
D11*
%TO.P,Out2,T*%
%TO.N,Net-(C4-Pad2)*%
X93500000Y-128070000D03*
%TO.P,Out2,TN*%
%TO.N,unconnected-(J3-PadTN)*%
X93500000Y-119770000D03*
%TD*%
D12*
%TO.P,RV2,*%
%TO.N,*%
X92075000Y-107000000D03*
X83275000Y-107000000D03*
D13*
%TO.P,RV2,1,1*%
%TO.N,unconnected-(RV2-Pad1)*%
X90175000Y-114000000D03*
%TO.P,RV2,2,2*%
%TO.N,pot_b_R*%
X87675000Y-114000000D03*
%TO.P,RV2,3,3*%
%TO.N,pot_a_R*%
X85175000Y-114000000D03*
%TD*%
D12*
%TO.P,RV1,*%
%TO.N,*%
X92075000Y-91800000D03*
X83275000Y-91800000D03*
D13*
%TO.P,RV1,1,1*%
%TO.N,unconnected-(RV1-Pad1)*%
X90175000Y-98800000D03*
%TO.P,RV1,2,2*%
%TO.N,pot_b_L*%
X87675000Y-98800000D03*
%TO.P,RV1,3,3*%
%TO.N,pot_a_L*%
X85175000Y-98800000D03*
%TD*%
D14*
%TO.P,LED2,1,K*%
%TO.N,GND*%
X94775000Y-73750000D03*
D13*
%TO.P,LED2,2,A*%
%TO.N,Net-(LED2-Pad2)*%
X92235000Y-73750000D03*
%TD*%
D14*
%TO.P,LED1,1,K*%
%TO.N,GND*%
X81975000Y-73750000D03*
D13*
%TO.P,LED1,2,A*%
%TO.N,Net-(LED1-Pad2)*%
X84515000Y-73750000D03*
%TD*%
D15*
%TO.P,J5,1,Pin_1*%
%TO.N,-12V*%
X83225000Y-133650000D03*
D16*
%TO.P,J5,2,Pin_2*%
X83225000Y-136190000D03*
%TO.P,J5,3,Pin_3*%
%TO.N,GND*%
X85765000Y-133650000D03*
%TO.P,J5,4,Pin_4*%
X85765000Y-136190000D03*
%TO.P,J5,5,Pin_5*%
X88305000Y-133650000D03*
%TO.P,J5,6,Pin_6*%
X88305000Y-136190000D03*
%TO.P,J5,7,Pin_7*%
X90845000Y-133650000D03*
%TO.P,J5,8,Pin_8*%
X90845000Y-136190000D03*
%TO.P,J5,9,Pin_9*%
%TO.N,+12V*%
X93385000Y-133650000D03*
%TO.P,J5,10,Pin_10*%
X93385000Y-136190000D03*
%TD*%
D10*
%TO.P,IN2,S*%
%TO.N,GND*%
X93500000Y-58370000D03*
D11*
%TO.P,IN2,T*%
%TO.N,Net-(C5-Pad2)*%
X93500000Y-69770000D03*
%TO.P,IN2,TN*%
%TO.N,unconnected-(J4-PadTN)*%
X93500000Y-61470000D03*
%TD*%
D10*
%TO.P,IN1,S*%
%TO.N,GND*%
X83000000Y-58370000D03*
D11*
%TO.P,IN1,T*%
%TO.N,Net-(C2-Pad2)*%
X83000000Y-69770000D03*
%TO.P,IN1,TN*%
%TO.N,unconnected-(J2-PadTN)*%
X83000000Y-61470000D03*
%TD*%
%TO.P,Out1,TN*%
%TO.N,unconnected-(J1-PadTN)*%
X83000000Y-119770000D03*
%TO.P,Out1,T*%
%TO.N,Net-(C1-Pad2)*%
X83000000Y-128070000D03*
D10*
%TO.P,Out1,S*%
%TO.N,GND*%
X83000000Y-116670000D03*
%TD*%
D17*
%TO.N,GND*%
X90950000Y-76270000D03*
X83300000Y-80800000D03*
X87470000Y-78620000D03*
X87910000Y-73840000D03*
X96500000Y-137000000D03*
X96500000Y-132500000D03*
X79500000Y-137000000D03*
X79500000Y-132500000D03*
X96250000Y-57750000D03*
X90250000Y-57750000D03*
X87000000Y-57750000D03*
X79500000Y-57750000D03*
X87750000Y-94000000D03*
X93500000Y-101750000D03*
X82250000Y-110500000D03*
X79750000Y-114250000D03*
X89000000Y-122250000D03*
X89250000Y-116500000D03*
X95250000Y-126500000D03*
X84250000Y-95750000D03*
X82634622Y-84634622D03*
X95250000Y-116750000D03*
X88750000Y-108500000D03*
X93500000Y-99000000D03*
X88750000Y-102750000D03*
X82000000Y-102750000D03*
X83750000Y-72000000D03*
X81250000Y-72000000D03*
%TO.N,Net-(R4-Pad2)*%
X80500000Y-80000000D03*
X85250000Y-75250000D03*
%TO.N,pot_b_R*%
X88500000Y-80000000D03*
X87000000Y-107000000D03*
%TO.N,GND*%
X88500000Y-83000000D03*
X93500000Y-83500000D03*
%TO.N,Net-(C1-Pad2)*%
X91750000Y-88750000D03*
X87500000Y-123500000D03*
X83750000Y-125000000D03*
%TO.N,Net-(R8-Pad2)*%
X90260000Y-75070000D03*
X82500000Y-122500000D03*
%TO.N,pot_a_R*%
X91750000Y-79250000D03*
%TO.N,+12V*%
X79750000Y-129250000D03*
%TD*%
D18*
%TO.N,Net-(R8-Pad2)*%
X82500000Y-122500000D02*
X80750000Y-120750000D01*
X80750000Y-120750000D02*
X80750000Y-80850000D01*
X86530000Y-75070000D02*
X90260000Y-75070000D01*
X80750000Y-80850000D02*
X86530000Y-75070000D01*
%TO.N,Net-(C1-Pad2)*%
X83750000Y-125000000D02*
X83000000Y-125750000D01*
X83000000Y-125750000D02*
X83000000Y-127670000D01*
X83000000Y-127670000D02*
X83400000Y-128070000D01*
%TO.N,Net-(R4-Pad2)*%
X85250000Y-75250000D02*
X80500000Y-80000000D01*
%TO.N,pot_b_R*%
X88500000Y-80000000D02*
X86475489Y-82024511D01*
X86475489Y-106475489D02*
X87000000Y-107000000D01*
X86475489Y-82024511D02*
X86475489Y-106475489D01*
%TO.N,Net-(C1-Pad2)*%
X87500000Y-118021366D02*
X83975489Y-114496855D01*
X83975489Y-114496855D02*
X83975489Y-111524511D01*
X83975489Y-111524511D02*
X91374511Y-104125489D01*
X87500000Y-123500000D02*
X87500000Y-118021366D01*
X91374511Y-95124511D02*
X89500000Y-93250000D01*
X91374511Y-104125489D02*
X91374511Y-95124511D01*
X89500000Y-93250000D02*
X89500000Y-90750000D01*
X89500000Y-90750000D02*
X91500000Y-88750000D01*
X91500000Y-88750000D02*
X91750000Y-88750000D01*
%TO.N,pot_a_R*%
X93850022Y-109750000D02*
X89425000Y-109750000D01*
X89425000Y-109750000D02*
X85175000Y-114000000D01*
X94750000Y-108850022D02*
X93850022Y-109750000D01*
X91750000Y-79250000D02*
X94750000Y-82250000D01*
X94750000Y-82250000D02*
X94750000Y-108850022D01*
%TO.N,+12V*%
X80500000Y-130000000D02*
X79750000Y-129250000D01*
X89735000Y-130000000D02*
X80500000Y-130000000D01*
X93385000Y-133650000D02*
X89735000Y-130000000D01*
%TD*%
%TA.AperFunction,Conductor*%
%TO.N,GND*%
G36*
X97137950Y-39759500D02*
G01*
X97152751Y-39761805D01*
X97152755Y-39761805D01*
X97161624Y-39763186D01*
X97170526Y-39762022D01*
X97170530Y-39762022D01*
X97170626Y-39762009D01*
X97201063Y-39761738D01*
X97263268Y-39768746D01*
X97290775Y-39775024D01*
X97367964Y-39802034D01*
X97393384Y-39814276D01*
X97462631Y-39857787D01*
X97484690Y-39875379D01*
X97542514Y-39933203D01*
X97560106Y-39955262D01*
X97603617Y-40024509D01*
X97615859Y-40049930D01*
X97642868Y-40127117D01*
X97649147Y-40154624D01*
X97655415Y-40210251D01*
X97656198Y-40225897D01*
X97656089Y-40234855D01*
X97654707Y-40243729D01*
X97656347Y-40256269D01*
X97658829Y-40275250D01*
X97659893Y-40291588D01*
X97659893Y-138200673D01*
X97658393Y-138220057D01*
X97656088Y-138234858D01*
X97656088Y-138234862D01*
X97654707Y-138243731D01*
X97655871Y-138252633D01*
X97655871Y-138252637D01*
X97655884Y-138252733D01*
X97656155Y-138283170D01*
X97649147Y-138345375D01*
X97642868Y-138372885D01*
X97615859Y-138450071D01*
X97603617Y-138475491D01*
X97560106Y-138544738D01*
X97542514Y-138566797D01*
X97484690Y-138624621D01*
X97462631Y-138642213D01*
X97393384Y-138685724D01*
X97367963Y-138697966D01*
X97290776Y-138724975D01*
X97263269Y-138731254D01*
X97239321Y-138733952D01*
X97207637Y-138737522D01*
X97191996Y-138738305D01*
X97183038Y-138738196D01*
X97174164Y-138736814D01*
X97142643Y-138740936D01*
X97126305Y-138742000D01*
X79424327Y-138742000D01*
X79404943Y-138740500D01*
X79390142Y-138738195D01*
X79390138Y-138738195D01*
X79381269Y-138736814D01*
X79372367Y-138737978D01*
X79372363Y-138737978D01*
X79372267Y-138737991D01*
X79341830Y-138738262D01*
X79279625Y-138731254D01*
X79252118Y-138724976D01*
X79174928Y-138697966D01*
X79149509Y-138685724D01*
X79080262Y-138642213D01*
X79058203Y-138624621D01*
X79000379Y-138566797D01*
X78982787Y-138544738D01*
X78939276Y-138475491D01*
X78927034Y-138450070D01*
X78900025Y-138372883D01*
X78893746Y-138345376D01*
X78887478Y-138289749D01*
X78886695Y-138274103D01*
X78886804Y-138265145D01*
X78888186Y-138256271D01*
X78884064Y-138224749D01*
X78883000Y-138208412D01*
X78883000Y-136156695D01*
X81862251Y-136156695D01*
X81862548Y-136161848D01*
X81862548Y-136161851D01*
X81868011Y-136256590D01*
X81875110Y-136379715D01*
X81876247Y-136384761D01*
X81876248Y-136384767D01*
X81890606Y-136448475D01*
X81924222Y-136597639D01*
X82008266Y-136804616D01*
X82035686Y-136849362D01*
X82122291Y-136990688D01*
X82124987Y-136995088D01*
X82271250Y-137163938D01*
X82443126Y-137306632D01*
X82636000Y-137419338D01*
X82844692Y-137499030D01*
X82849760Y-137500061D01*
X82849763Y-137500062D01*
X82944862Y-137519410D01*
X83063597Y-137543567D01*
X83068772Y-137543757D01*
X83068774Y-137543757D01*
X83281673Y-137551564D01*
X83281677Y-137551564D01*
X83286837Y-137551753D01*
X83291957Y-137551097D01*
X83291959Y-137551097D01*
X83503288Y-137524025D01*
X83503289Y-137524025D01*
X83508416Y-137523368D01*
X83513366Y-137521883D01*
X83717429Y-137460661D01*
X83717434Y-137460659D01*
X83722384Y-137459174D01*
X83922994Y-137360896D01*
X84104860Y-137231173D01*
X84263096Y-137073489D01*
X84322594Y-136990689D01*
X84393453Y-136892077D01*
X84394640Y-136892930D01*
X84441960Y-136849362D01*
X84511897Y-136837145D01*
X84577338Y-136864678D01*
X84605166Y-136896511D01*
X84662694Y-136990388D01*
X84668777Y-136998699D01*
X84808213Y-137159667D01*
X84815580Y-137166883D01*
X84979434Y-137302916D01*
X84987881Y-137308831D01*
X85171756Y-137416279D01*
X85181042Y-137420729D01*
X85380001Y-137496703D01*
X85389899Y-137499579D01*
X85493250Y-137520606D01*
X85507299Y-137519410D01*
X85511000Y-137509065D01*
X85511000Y-137508517D01*
X86019000Y-137508517D01*
X86023064Y-137522359D01*
X86036478Y-137524393D01*
X86043184Y-137523534D01*
X86053262Y-137521392D01*
X86257255Y-137460191D01*
X86266842Y-137456433D01*
X86458095Y-137362739D01*
X86466945Y-137357464D01*
X86640328Y-137233792D01*
X86648200Y-137227139D01*
X86799052Y-137076812D01*
X86805730Y-137068965D01*
X86933022Y-136891819D01*
X86934147Y-136892627D01*
X86981669Y-136848876D01*
X87051607Y-136836661D01*
X87117046Y-136864197D01*
X87144870Y-136896028D01*
X87202690Y-136990383D01*
X87208777Y-136998699D01*
X87348213Y-137159667D01*
X87355580Y-137166883D01*
X87519434Y-137302916D01*
X87527881Y-137308831D01*
X87711756Y-137416279D01*
X87721042Y-137420729D01*
X87920001Y-137496703D01*
X87929899Y-137499579D01*
X88033250Y-137520606D01*
X88047299Y-137519410D01*
X88051000Y-137509065D01*
X88051000Y-137508517D01*
X88559000Y-137508517D01*
X88563064Y-137522359D01*
X88576478Y-137524393D01*
X88583184Y-137523534D01*
X88593262Y-137521392D01*
X88797255Y-137460191D01*
X88806842Y-137456433D01*
X88998095Y-137362739D01*
X89006945Y-137357464D01*
X89180328Y-137233792D01*
X89188200Y-137227139D01*
X89339052Y-137076812D01*
X89345730Y-137068965D01*
X89473022Y-136891819D01*
X89474147Y-136892627D01*
X89521669Y-136848876D01*
X89591607Y-136836661D01*
X89657046Y-136864197D01*
X89684870Y-136896028D01*
X89742690Y-136990383D01*
X89748777Y-136998699D01*
X89888213Y-137159667D01*
X89895580Y-137166883D01*
X90059434Y-137302916D01*
X90067881Y-137308831D01*
X90251756Y-137416279D01*
X90261042Y-137420729D01*
X90460001Y-137496703D01*
X90469899Y-137499579D01*
X90573250Y-137520606D01*
X90587299Y-137519410D01*
X90591000Y-137509065D01*
X90591000Y-136462115D01*
X90586525Y-136446876D01*
X90585135Y-136445671D01*
X90577452Y-136444000D01*
X88577115Y-136444000D01*
X88561876Y-136448475D01*
X88560671Y-136449865D01*
X88559000Y-136457548D01*
X88559000Y-137508517D01*
X88051000Y-137508517D01*
X88051000Y-136462115D01*
X88046525Y-136446876D01*
X88045135Y-136445671D01*
X88037452Y-136444000D01*
X86037115Y-136444000D01*
X86021876Y-136448475D01*
X86020671Y-136449865D01*
X86019000Y-136457548D01*
X86019000Y-137508517D01*
X85511000Y-137508517D01*
X85511000Y-135917885D01*
X86019000Y-135917885D01*
X86023475Y-135933124D01*
X86024865Y-135934329D01*
X86032548Y-135936000D01*
X88032885Y-135936000D01*
X88048124Y-135931525D01*
X88049329Y-135930135D01*
X88051000Y-135922452D01*
X88051000Y-135917885D01*
X88559000Y-135917885D01*
X88563475Y-135933124D01*
X88564865Y-135934329D01*
X88572548Y-135936000D01*
X90572885Y-135936000D01*
X90588124Y-135931525D01*
X90589329Y-135930135D01*
X90591000Y-135922452D01*
X90591000Y-133922115D01*
X90586525Y-133906876D01*
X90585135Y-133905671D01*
X90577452Y-133904000D01*
X88577115Y-133904000D01*
X88561876Y-133908475D01*
X88560671Y-133909865D01*
X88559000Y-133917548D01*
X88559000Y-135917885D01*
X88051000Y-135917885D01*
X88051000Y-133922115D01*
X88046525Y-133906876D01*
X88045135Y-133905671D01*
X88037452Y-133904000D01*
X86037115Y-133904000D01*
X86021876Y-133908475D01*
X86020671Y-133909865D01*
X86019000Y-133917548D01*
X86019000Y-135917885D01*
X85511000Y-135917885D01*
X85511000Y-133377885D01*
X86019000Y-133377885D01*
X86023475Y-133393124D01*
X86024865Y-133394329D01*
X86032548Y-133396000D01*
X88032885Y-133396000D01*
X88048124Y-133391525D01*
X88049329Y-133390135D01*
X88051000Y-133382452D01*
X88051000Y-133377885D01*
X88559000Y-133377885D01*
X88563475Y-133393124D01*
X88564865Y-133394329D01*
X88572548Y-133396000D01*
X90572885Y-133396000D01*
X90588124Y-133391525D01*
X90589329Y-133390135D01*
X90591000Y-133382452D01*
X90591000Y-132333102D01*
X90587082Y-132319758D01*
X90572806Y-132317771D01*
X90534324Y-132323660D01*
X90524288Y-132326051D01*
X90321868Y-132392212D01*
X90312359Y-132396209D01*
X90123463Y-132494542D01*
X90114738Y-132500036D01*
X89944433Y-132627905D01*
X89936726Y-132634748D01*
X89789590Y-132788717D01*
X89783104Y-132796727D01*
X89678193Y-132950521D01*
X89623282Y-132995524D01*
X89552757Y-133003695D01*
X89489010Y-132972441D01*
X89468313Y-132947957D01*
X89387427Y-132822926D01*
X89381136Y-132814757D01*
X89237806Y-132657240D01*
X89230273Y-132650215D01*
X89063139Y-132518222D01*
X89054552Y-132512517D01*
X88868117Y-132409599D01*
X88858705Y-132405369D01*
X88657959Y-132334280D01*
X88647988Y-132331646D01*
X88576837Y-132318972D01*
X88563540Y-132320432D01*
X88559000Y-132334989D01*
X88559000Y-133377885D01*
X88051000Y-133377885D01*
X88051000Y-132333102D01*
X88047082Y-132319758D01*
X88032806Y-132317771D01*
X87994324Y-132323660D01*
X87984288Y-132326051D01*
X87781868Y-132392212D01*
X87772359Y-132396209D01*
X87583463Y-132494542D01*
X87574738Y-132500036D01*
X87404433Y-132627905D01*
X87396726Y-132634748D01*
X87249590Y-132788717D01*
X87243104Y-132796727D01*
X87138193Y-132950521D01*
X87083282Y-132995524D01*
X87012757Y-133003695D01*
X86949010Y-132972441D01*
X86928313Y-132947957D01*
X86847427Y-132822926D01*
X86841136Y-132814757D01*
X86697806Y-132657240D01*
X86690273Y-132650215D01*
X86523139Y-132518222D01*
X86514552Y-132512517D01*
X86328117Y-132409599D01*
X86318705Y-132405369D01*
X86117959Y-132334280D01*
X86107988Y-132331646D01*
X86036837Y-132318972D01*
X86023540Y-132320432D01*
X86019000Y-132334989D01*
X86019000Y-133377885D01*
X85511000Y-133377885D01*
X85511000Y-132333102D01*
X85507082Y-132319758D01*
X85492806Y-132317771D01*
X85454324Y-132323660D01*
X85444288Y-132326051D01*
X85241868Y-132392212D01*
X85232359Y-132396209D01*
X85043463Y-132494542D01*
X85034738Y-132500036D01*
X84864433Y-132627905D01*
X84856726Y-132634748D01*
X84779478Y-132715584D01*
X84717954Y-132751014D01*
X84647042Y-132747557D01*
X84589255Y-132706311D01*
X84570402Y-132672763D01*
X84528767Y-132561703D01*
X84525615Y-132553295D01*
X84438261Y-132436739D01*
X84321705Y-132349385D01*
X84185316Y-132298255D01*
X84123134Y-132291500D01*
X82326866Y-132291500D01*
X82264684Y-132298255D01*
X82128295Y-132349385D01*
X82011739Y-132436739D01*
X81924385Y-132553295D01*
X81873255Y-132689684D01*
X81866500Y-132751866D01*
X81866500Y-134548134D01*
X81873255Y-134610316D01*
X81924385Y-134746705D01*
X82011739Y-134863261D01*
X82128295Y-134950615D01*
X82136704Y-134953767D01*
X82136705Y-134953768D01*
X82245451Y-134994535D01*
X82302216Y-135037176D01*
X82326916Y-135103738D01*
X82311709Y-135173087D01*
X82292316Y-135199568D01*
X82165629Y-135332138D01*
X82162715Y-135336410D01*
X82162714Y-135336411D01*
X82150409Y-135354450D01*
X82039743Y-135516680D01*
X81945688Y-135719305D01*
X81885989Y-135934570D01*
X81862251Y-136156695D01*
X78883000Y-136156695D01*
X78883000Y-129973071D01*
X78903002Y-129904950D01*
X78956658Y-129858457D01*
X79026932Y-129848353D01*
X79091512Y-129877847D01*
X79102631Y-129888755D01*
X79138747Y-129928866D01*
X79293248Y-130041118D01*
X79299276Y-130043802D01*
X79299278Y-130043803D01*
X79461681Y-130116109D01*
X79467712Y-130118794D01*
X79561113Y-130138647D01*
X79648056Y-130157128D01*
X79648061Y-130157128D01*
X79654513Y-130158500D01*
X79745761Y-130158500D01*
X79813882Y-130178502D01*
X79834856Y-130195405D01*
X80035685Y-130396234D01*
X80046552Y-130408625D01*
X80066013Y-130433987D01*
X80097925Y-130458474D01*
X80097928Y-130458477D01*
X80193124Y-130531524D01*
X80254438Y-130556921D01*
X80333520Y-130589678D01*
X80333523Y-130589679D01*
X80341150Y-130592838D01*
X80460115Y-130608500D01*
X80460120Y-130608500D01*
X80460129Y-130608501D01*
X80491812Y-130612672D01*
X80500000Y-130613750D01*
X80531693Y-130609578D01*
X80548136Y-130608500D01*
X89430761Y-130608500D01*
X89498882Y-130628502D01*
X89519856Y-130645405D01*
X91071381Y-132196930D01*
X91105407Y-132259242D01*
X91102570Y-132323545D01*
X91099000Y-132334990D01*
X91099000Y-137508517D01*
X91103064Y-137522359D01*
X91116478Y-137524393D01*
X91123184Y-137523534D01*
X91133262Y-137521392D01*
X91337255Y-137460191D01*
X91346842Y-137456433D01*
X91538095Y-137362739D01*
X91546945Y-137357464D01*
X91720328Y-137233792D01*
X91728200Y-137227139D01*
X91879052Y-137076812D01*
X91885730Y-137068965D01*
X92013022Y-136891819D01*
X92014279Y-136892722D01*
X92061373Y-136849362D01*
X92131311Y-136837145D01*
X92196751Y-136864678D01*
X92224579Y-136896511D01*
X92284987Y-136995088D01*
X92431250Y-137163938D01*
X92603126Y-137306632D01*
X92796000Y-137419338D01*
X93004692Y-137499030D01*
X93009760Y-137500061D01*
X93009763Y-137500062D01*
X93104862Y-137519410D01*
X93223597Y-137543567D01*
X93228772Y-137543757D01*
X93228774Y-137543757D01*
X93441673Y-137551564D01*
X93441677Y-137551564D01*
X93446837Y-137551753D01*
X93451957Y-137551097D01*
X93451959Y-137551097D01*
X93663288Y-137524025D01*
X93663289Y-137524025D01*
X93668416Y-137523368D01*
X93673366Y-137521883D01*
X93877429Y-137460661D01*
X93877434Y-137460659D01*
X93882384Y-137459174D01*
X94082994Y-137360896D01*
X94264860Y-137231173D01*
X94423096Y-137073489D01*
X94482594Y-136990689D01*
X94550435Y-136896277D01*
X94553453Y-136892077D01*
X94566995Y-136864678D01*
X94650136Y-136696453D01*
X94650137Y-136696451D01*
X94652430Y-136691811D01*
X94717370Y-136478069D01*
X94746529Y-136256590D01*
X94748156Y-136190000D01*
X94729852Y-135967361D01*
X94675431Y-135750702D01*
X94586354Y-135545840D01*
X94465014Y-135358277D01*
X94314670Y-135193051D01*
X94310619Y-135189852D01*
X94310615Y-135189848D01*
X94143414Y-135057800D01*
X94143410Y-135057798D01*
X94139359Y-135054598D01*
X94098053Y-135031796D01*
X94048084Y-134981364D01*
X94033312Y-134911921D01*
X94058428Y-134845516D01*
X94085780Y-134818909D01*
X94129603Y-134787650D01*
X94264860Y-134691173D01*
X94423096Y-134533489D01*
X94553453Y-134352077D01*
X94566995Y-134324678D01*
X94650136Y-134156453D01*
X94650137Y-134156451D01*
X94652430Y-134151811D01*
X94717370Y-133938069D01*
X94746529Y-133716590D01*
X94748156Y-133650000D01*
X94729852Y-133427361D01*
X94675431Y-133210702D01*
X94586354Y-133005840D01*
X94465014Y-132818277D01*
X94314670Y-132653051D01*
X94310619Y-132649852D01*
X94310615Y-132649848D01*
X94143414Y-132517800D01*
X94143410Y-132517798D01*
X94139359Y-132514598D01*
X94103028Y-132494542D01*
X94087136Y-132485769D01*
X93943789Y-132406638D01*
X93938920Y-132404914D01*
X93938916Y-132404912D01*
X93738087Y-132333795D01*
X93738083Y-132333794D01*
X93733212Y-132332069D01*
X93728119Y-132331162D01*
X93728116Y-132331161D01*
X93518373Y-132293800D01*
X93518367Y-132293799D01*
X93513284Y-132292894D01*
X93439452Y-132291992D01*
X93295081Y-132290228D01*
X93295079Y-132290228D01*
X93289911Y-132290165D01*
X93142627Y-132312703D01*
X93074200Y-132323173D01*
X93074197Y-132323174D01*
X93069091Y-132323955D01*
X93064176Y-132325562D01*
X93064174Y-132325562D01*
X93029890Y-132336768D01*
X92958927Y-132338921D01*
X92901648Y-132306099D01*
X90199315Y-129603766D01*
X90188448Y-129591375D01*
X90174013Y-129572563D01*
X90168987Y-129566013D01*
X90137075Y-129541526D01*
X90137072Y-129541523D01*
X90111128Y-129521615D01*
X90048429Y-129473504D01*
X90048427Y-129473503D01*
X90041876Y-129468476D01*
X89893851Y-129407162D01*
X89885664Y-129406084D01*
X89885663Y-129406084D01*
X89874458Y-129404609D01*
X89843262Y-129400502D01*
X89774885Y-129391500D01*
X89774882Y-129391500D01*
X89774874Y-129391499D01*
X89743189Y-129387328D01*
X89735000Y-129386250D01*
X89703307Y-129390422D01*
X89686864Y-129391500D01*
X84213937Y-129391500D01*
X84145816Y-129371498D01*
X84099323Y-129317842D01*
X84089219Y-129247568D01*
X84118126Y-129183669D01*
X84229050Y-129053794D01*
X84276925Y-128997740D01*
X84406334Y-128786563D01*
X84434414Y-128718774D01*
X84499221Y-128562315D01*
X84499222Y-128562313D01*
X84501115Y-128557742D01*
X84525494Y-128456197D01*
X84557779Y-128321724D01*
X84557780Y-128321718D01*
X84558934Y-128316911D01*
X84578366Y-128070000D01*
X91921634Y-128070000D01*
X91941066Y-128316911D01*
X91942220Y-128321718D01*
X91942221Y-128321724D01*
X91974506Y-128456197D01*
X91998885Y-128557742D01*
X92000778Y-128562313D01*
X92000779Y-128562315D01*
X92065587Y-128718774D01*
X92093666Y-128786563D01*
X92223075Y-128997740D01*
X92383927Y-129186073D01*
X92572260Y-129346925D01*
X92783437Y-129476334D01*
X92788007Y-129478227D01*
X92788011Y-129478229D01*
X93007685Y-129569221D01*
X93012258Y-129571115D01*
X93096646Y-129591375D01*
X93248276Y-129627779D01*
X93248282Y-129627780D01*
X93253089Y-129628934D01*
X93500000Y-129648366D01*
X93746911Y-129628934D01*
X93751718Y-129627780D01*
X93751724Y-129627779D01*
X93903354Y-129591375D01*
X93987742Y-129571115D01*
X93992315Y-129569221D01*
X94211989Y-129478229D01*
X94211993Y-129478227D01*
X94216563Y-129476334D01*
X94427740Y-129346925D01*
X94616073Y-129186073D01*
X94776925Y-128997740D01*
X94906334Y-128786563D01*
X94934414Y-128718774D01*
X94999221Y-128562315D01*
X94999222Y-128562313D01*
X95001115Y-128557742D01*
X95025494Y-128456197D01*
X95057779Y-128321724D01*
X95057780Y-128321718D01*
X95058934Y-128316911D01*
X95078366Y-128070000D01*
X95058934Y-127823089D01*
X95057780Y-127818282D01*
X95057779Y-127818276D01*
X95002270Y-127587070D01*
X95001115Y-127582258D01*
X94906334Y-127353437D01*
X94776925Y-127142260D01*
X94616073Y-126953927D01*
X94427740Y-126793075D01*
X94216563Y-126663666D01*
X94211993Y-126661773D01*
X94211989Y-126661771D01*
X93992315Y-126570779D01*
X93992313Y-126570778D01*
X93987742Y-126568885D01*
X93902830Y-126548499D01*
X93751724Y-126512221D01*
X93751718Y-126512220D01*
X93746911Y-126511066D01*
X93500000Y-126491634D01*
X93253089Y-126511066D01*
X93248282Y-126512220D01*
X93248276Y-126512221D01*
X93097170Y-126548499D01*
X93012258Y-126568885D01*
X93007687Y-126570778D01*
X93007685Y-126570779D01*
X92788011Y-126661771D01*
X92788007Y-126661773D01*
X92783437Y-126663666D01*
X92572260Y-126793075D01*
X92383927Y-126953927D01*
X92223075Y-127142260D01*
X92093666Y-127353437D01*
X91998885Y-127582258D01*
X91997730Y-127587070D01*
X91942221Y-127818276D01*
X91942220Y-127818282D01*
X91941066Y-127823089D01*
X91921634Y-128070000D01*
X84578366Y-128070000D01*
X84558934Y-127823089D01*
X84557780Y-127818282D01*
X84557779Y-127818276D01*
X84502270Y-127587070D01*
X84501115Y-127582258D01*
X84406334Y-127353437D01*
X84276925Y-127142260D01*
X84116073Y-126953927D01*
X83927740Y-126793075D01*
X83716563Y-126663666D01*
X83686281Y-126651123D01*
X83631001Y-126606574D01*
X83608500Y-126534714D01*
X83608500Y-126054239D01*
X83628502Y-125986118D01*
X83645405Y-125965144D01*
X83665144Y-125945405D01*
X83727456Y-125911379D01*
X83754239Y-125908500D01*
X83845487Y-125908500D01*
X83851939Y-125907128D01*
X83851944Y-125907128D01*
X83938888Y-125888647D01*
X84032288Y-125868794D01*
X84038319Y-125866109D01*
X84200722Y-125793803D01*
X84200724Y-125793802D01*
X84206752Y-125791118D01*
X84219729Y-125781690D01*
X84274617Y-125741811D01*
X84361253Y-125678866D01*
X84489040Y-125536944D01*
X84584527Y-125371556D01*
X84643542Y-125189928D01*
X84663504Y-125000000D01*
X84643542Y-124810072D01*
X84584527Y-124628444D01*
X84489040Y-124463056D01*
X84361253Y-124321134D01*
X84206752Y-124208882D01*
X84200724Y-124206198D01*
X84200722Y-124206197D01*
X84038319Y-124133891D01*
X84038318Y-124133891D01*
X84032288Y-124131206D01*
X83938887Y-124111353D01*
X83851944Y-124092872D01*
X83851939Y-124092872D01*
X83845487Y-124091500D01*
X83654513Y-124091500D01*
X83648061Y-124092872D01*
X83648056Y-124092872D01*
X83561113Y-124111353D01*
X83467712Y-124131206D01*
X83461682Y-124133891D01*
X83461681Y-124133891D01*
X83299278Y-124206197D01*
X83299276Y-124206198D01*
X83293248Y-124208882D01*
X83138747Y-124321134D01*
X83010960Y-124463056D01*
X82915473Y-124628444D01*
X82856458Y-124810072D01*
X82836496Y-125000000D01*
X82836684Y-125001786D01*
X82817184Y-125068196D01*
X82800281Y-125089170D01*
X82603766Y-125285685D01*
X82591375Y-125296552D01*
X82566013Y-125316013D01*
X82541526Y-125347925D01*
X82541523Y-125347928D01*
X82468476Y-125443124D01*
X82407162Y-125591149D01*
X82407162Y-125591150D01*
X82405414Y-125604426D01*
X82395614Y-125678866D01*
X82391500Y-125710115D01*
X82391500Y-125710120D01*
X82386250Y-125750000D01*
X82387328Y-125758188D01*
X82390422Y-125781690D01*
X82391500Y-125798136D01*
X82391500Y-126534714D01*
X82371498Y-126602835D01*
X82313719Y-126651123D01*
X82283437Y-126663666D01*
X82072260Y-126793075D01*
X81883927Y-126953927D01*
X81723075Y-127142260D01*
X81593666Y-127353437D01*
X81498885Y-127582258D01*
X81497730Y-127587070D01*
X81442221Y-127818276D01*
X81442220Y-127818282D01*
X81441066Y-127823089D01*
X81421634Y-128070000D01*
X81441066Y-128316911D01*
X81442220Y-128321718D01*
X81442221Y-128321724D01*
X81474506Y-128456197D01*
X81498885Y-128557742D01*
X81500778Y-128562313D01*
X81500779Y-128562315D01*
X81565587Y-128718774D01*
X81593666Y-128786563D01*
X81723075Y-128997740D01*
X81770950Y-129053794D01*
X81881874Y-129183669D01*
X81910905Y-129248459D01*
X81900300Y-129318659D01*
X81853425Y-129371981D01*
X81786063Y-129391500D01*
X80804239Y-129391500D01*
X80736118Y-129371498D01*
X80715144Y-129354595D01*
X80699719Y-129339170D01*
X80665693Y-129276858D01*
X80663159Y-129253284D01*
X80663504Y-129250000D01*
X80643542Y-129060072D01*
X80584527Y-128878444D01*
X80489040Y-128713056D01*
X80361253Y-128571134D01*
X80206752Y-128458882D01*
X80200724Y-128456198D01*
X80200722Y-128456197D01*
X80038319Y-128383891D01*
X80038318Y-128383891D01*
X80032288Y-128381206D01*
X79938887Y-128361353D01*
X79851944Y-128342872D01*
X79851939Y-128342872D01*
X79845487Y-128341500D01*
X79654513Y-128341500D01*
X79648061Y-128342872D01*
X79648056Y-128342872D01*
X79561113Y-128361353D01*
X79467712Y-128381206D01*
X79461682Y-128383891D01*
X79461681Y-128383891D01*
X79299278Y-128456197D01*
X79299276Y-128456198D01*
X79293248Y-128458882D01*
X79138747Y-128571134D01*
X79102635Y-128611241D01*
X79042190Y-128648479D01*
X78971206Y-128647127D01*
X78912222Y-128607613D01*
X78883964Y-128542482D01*
X78883000Y-128526929D01*
X78883000Y-80000000D01*
X79586496Y-80000000D01*
X79587186Y-80006565D01*
X79603011Y-80157128D01*
X79606458Y-80189928D01*
X79665473Y-80371556D01*
X79760960Y-80536944D01*
X79888747Y-80678866D01*
X80043248Y-80791118D01*
X80049284Y-80793805D01*
X80049285Y-80793806D01*
X80066749Y-80801582D01*
X80120845Y-80847562D01*
X80141500Y-80916688D01*
X80141500Y-120701864D01*
X80140422Y-120718307D01*
X80136250Y-120750000D01*
X80141500Y-120789880D01*
X80141500Y-120789885D01*
X80154163Y-120886073D01*
X80157162Y-120908851D01*
X80218476Y-121056876D01*
X80223503Y-121063427D01*
X80223504Y-121063429D01*
X80291520Y-121152069D01*
X80291526Y-121152075D01*
X80316013Y-121183987D01*
X80322568Y-121189017D01*
X80341379Y-121203452D01*
X80353770Y-121214319D01*
X81550281Y-122410830D01*
X81584307Y-122473142D01*
X81586841Y-122496716D01*
X81586496Y-122500000D01*
X81606458Y-122689928D01*
X81665473Y-122871556D01*
X81760960Y-123036944D01*
X81888747Y-123178866D01*
X82043248Y-123291118D01*
X82049276Y-123293802D01*
X82049278Y-123293803D01*
X82100560Y-123316635D01*
X82217712Y-123368794D01*
X82311112Y-123388647D01*
X82398056Y-123407128D01*
X82398061Y-123407128D01*
X82404513Y-123408500D01*
X82595487Y-123408500D01*
X82601939Y-123407128D01*
X82601944Y-123407128D01*
X82688888Y-123388647D01*
X82782288Y-123368794D01*
X82899440Y-123316635D01*
X82950722Y-123293803D01*
X82950724Y-123293802D01*
X82956752Y-123291118D01*
X83111253Y-123178866D01*
X83239040Y-123036944D01*
X83334527Y-122871556D01*
X83393542Y-122689928D01*
X83413504Y-122500000D01*
X83393542Y-122310072D01*
X83334527Y-122128444D01*
X83239040Y-121963056D01*
X83111253Y-121821134D01*
X82956752Y-121708882D01*
X82950724Y-121706198D01*
X82950722Y-121706197D01*
X82788319Y-121633891D01*
X82788318Y-121633891D01*
X82782288Y-121631206D01*
X82688887Y-121611353D01*
X82601944Y-121592872D01*
X82601939Y-121592872D01*
X82595487Y-121591500D01*
X82504239Y-121591500D01*
X82436118Y-121571498D01*
X82415144Y-121554595D01*
X82310456Y-121449907D01*
X82276430Y-121387595D01*
X82281495Y-121316780D01*
X82324042Y-121259944D01*
X82390562Y-121235133D01*
X82447769Y-121244403D01*
X82507685Y-121269221D01*
X82512258Y-121271115D01*
X82597170Y-121291501D01*
X82748276Y-121327779D01*
X82748282Y-121327780D01*
X82753089Y-121328934D01*
X83000000Y-121348366D01*
X83246911Y-121328934D01*
X83251718Y-121327780D01*
X83251724Y-121327779D01*
X83402830Y-121291501D01*
X83487742Y-121271115D01*
X83492315Y-121269221D01*
X83711989Y-121178229D01*
X83711993Y-121178227D01*
X83716563Y-121176334D01*
X83927740Y-121046925D01*
X84116073Y-120886073D01*
X84276925Y-120697740D01*
X84406334Y-120486563D01*
X84501115Y-120257742D01*
X84521501Y-120172830D01*
X84557779Y-120021724D01*
X84557780Y-120021718D01*
X84558934Y-120016911D01*
X84578366Y-119770000D01*
X84558934Y-119523089D01*
X84557780Y-119518282D01*
X84557779Y-119518276D01*
X84502270Y-119287070D01*
X84501115Y-119282258D01*
X84406334Y-119053437D01*
X84276925Y-118842260D01*
X84116073Y-118653927D01*
X83927740Y-118493075D01*
X83716563Y-118363666D01*
X83648342Y-118335408D01*
X83593062Y-118290859D01*
X83570641Y-118223496D01*
X83588199Y-118154705D01*
X83640162Y-118106326D01*
X83696561Y-118092999D01*
X84009669Y-118092999D01*
X84016490Y-118092629D01*
X84067352Y-118087105D01*
X84082604Y-118083479D01*
X84203054Y-118038324D01*
X84218649Y-118029786D01*
X84320724Y-117953285D01*
X84333285Y-117940724D01*
X84409786Y-117838649D01*
X84418324Y-117823054D01*
X84463478Y-117702606D01*
X84467105Y-117687351D01*
X84472631Y-117636486D01*
X84473000Y-117629672D01*
X84473000Y-116942115D01*
X84468525Y-116926876D01*
X84467135Y-116925671D01*
X84459452Y-116924000D01*
X82872000Y-116924000D01*
X82803879Y-116903998D01*
X82757386Y-116850342D01*
X82746000Y-116798000D01*
X82746000Y-115265116D01*
X82741525Y-115249877D01*
X82740135Y-115248672D01*
X82732452Y-115247001D01*
X81990331Y-115247001D01*
X81983510Y-115247371D01*
X81932648Y-115252895D01*
X81917396Y-115256521D01*
X81796946Y-115301676D01*
X81781351Y-115310214D01*
X81679276Y-115386715D01*
X81666719Y-115399272D01*
X81585327Y-115507874D01*
X81528467Y-115550389D01*
X81457649Y-115555415D01*
X81395355Y-115521355D01*
X81361365Y-115459024D01*
X81358500Y-115432309D01*
X81358500Y-108932619D01*
X81378502Y-108864498D01*
X81432158Y-108818005D01*
X81502432Y-108807901D01*
X81570753Y-108840769D01*
X81672860Y-108936654D01*
X81928221Y-109122184D01*
X81931690Y-109124091D01*
X81931693Y-109124093D01*
X82201352Y-109272340D01*
X82204821Y-109274247D01*
X82208490Y-109275700D01*
X82208495Y-109275702D01*
X82494628Y-109388990D01*
X82498298Y-109390443D01*
X82804025Y-109468940D01*
X83117179Y-109508500D01*
X83432821Y-109508500D01*
X83745975Y-109468940D01*
X84051702Y-109390443D01*
X84055372Y-109388990D01*
X84341505Y-109275702D01*
X84341510Y-109275700D01*
X84345179Y-109274247D01*
X84348648Y-109272340D01*
X84618307Y-109124093D01*
X84618310Y-109124091D01*
X84621779Y-109122184D01*
X84877140Y-108936654D01*
X85107233Y-108720582D01*
X85308432Y-108477375D01*
X85477562Y-108210869D01*
X85479246Y-108207290D01*
X85479250Y-108207283D01*
X85610267Y-107928856D01*
X85610269Y-107928852D01*
X85611956Y-107925266D01*
X85709495Y-107625072D01*
X85768641Y-107315020D01*
X85788460Y-107000000D01*
X85785614Y-106954768D01*
X85801299Y-106885527D01*
X85851929Y-106835756D01*
X85921430Y-106821260D01*
X85987735Y-106846639D01*
X86011323Y-106870148D01*
X86017008Y-106877556D01*
X86017012Y-106877561D01*
X86017015Y-106877564D01*
X86041502Y-106909476D01*
X86048053Y-106914503D01*
X86050284Y-106916734D01*
X86084307Y-106979047D01*
X86086527Y-106999701D01*
X86086496Y-107000000D01*
X86087186Y-107006565D01*
X86095894Y-107089413D01*
X86106458Y-107189928D01*
X86165473Y-107371556D01*
X86260960Y-107536944D01*
X86388747Y-107678866D01*
X86543248Y-107791118D01*
X86549275Y-107793801D01*
X86549283Y-107793806D01*
X86586866Y-107810539D01*
X86640961Y-107856519D01*
X86661610Y-107924447D01*
X86642257Y-107992755D01*
X86624711Y-108014740D01*
X83579255Y-111060196D01*
X83566864Y-111071063D01*
X83541502Y-111090524D01*
X83517015Y-111122436D01*
X83517012Y-111122439D01*
X83443965Y-111217635D01*
X83443965Y-111217636D01*
X83382651Y-111365661D01*
X83366989Y-111484626D01*
X83366989Y-111484631D01*
X83361739Y-111524511D01*
X83362817Y-111532699D01*
X83365911Y-111556201D01*
X83366989Y-111572647D01*
X83366989Y-114448719D01*
X83365911Y-114465162D01*
X83361739Y-114496855D01*
X83366989Y-114536735D01*
X83366989Y-114536740D01*
X83375432Y-114600873D01*
X83382651Y-114655706D01*
X83443965Y-114803731D01*
X83448992Y-114810282D01*
X83448993Y-114810284D01*
X83517009Y-114898924D01*
X83517015Y-114898930D01*
X83541502Y-114930842D01*
X83548057Y-114935872D01*
X83566868Y-114950307D01*
X83579259Y-114961174D01*
X83649990Y-115031905D01*
X83684016Y-115094217D01*
X83678951Y-115165032D01*
X83636404Y-115221868D01*
X83569884Y-115246679D01*
X83560895Y-115247000D01*
X83272115Y-115247000D01*
X83256876Y-115251475D01*
X83255671Y-115252865D01*
X83254000Y-115260548D01*
X83254000Y-116397885D01*
X83258475Y-116413124D01*
X83259865Y-116414329D01*
X83267548Y-116416000D01*
X84454884Y-116416000D01*
X84470123Y-116411525D01*
X84471328Y-116410135D01*
X84472999Y-116402452D01*
X84472999Y-116159104D01*
X84493001Y-116090983D01*
X84546657Y-116044490D01*
X84616931Y-116034386D01*
X84681511Y-116063880D01*
X84688094Y-116070009D01*
X86854595Y-118236510D01*
X86888621Y-118298822D01*
X86891500Y-118325605D01*
X86891500Y-122769710D01*
X86871498Y-122837831D01*
X86859136Y-122854020D01*
X86760960Y-122963056D01*
X86665473Y-123128444D01*
X86606458Y-123310072D01*
X86586496Y-123500000D01*
X86606458Y-123689928D01*
X86665473Y-123871556D01*
X86760960Y-124036944D01*
X86888747Y-124178866D01*
X87043248Y-124291118D01*
X87049276Y-124293802D01*
X87049278Y-124293803D01*
X87211681Y-124366109D01*
X87217712Y-124368794D01*
X87311113Y-124388647D01*
X87398056Y-124407128D01*
X87398061Y-124407128D01*
X87404513Y-124408500D01*
X87595487Y-124408500D01*
X87601939Y-124407128D01*
X87601944Y-124407128D01*
X87688887Y-124388647D01*
X87782288Y-124368794D01*
X87788319Y-124366109D01*
X87950722Y-124293803D01*
X87950724Y-124293802D01*
X87956752Y-124291118D01*
X88111253Y-124178866D01*
X88239040Y-124036944D01*
X88334527Y-123871556D01*
X88393542Y-123689928D01*
X88413504Y-123500000D01*
X88393542Y-123310072D01*
X88334527Y-123128444D01*
X88239040Y-122963056D01*
X88140864Y-122854020D01*
X88110146Y-122790013D01*
X88108500Y-122769710D01*
X88108500Y-119770000D01*
X91921634Y-119770000D01*
X91941066Y-120016911D01*
X91942220Y-120021718D01*
X91942221Y-120021724D01*
X91978499Y-120172830D01*
X91998885Y-120257742D01*
X92093666Y-120486563D01*
X92223075Y-120697740D01*
X92383927Y-120886073D01*
X92572260Y-121046925D01*
X92783437Y-121176334D01*
X92788007Y-121178227D01*
X92788011Y-121178229D01*
X93007685Y-121269221D01*
X93012258Y-121271115D01*
X93097170Y-121291501D01*
X93248276Y-121327779D01*
X93248282Y-121327780D01*
X93253089Y-121328934D01*
X93500000Y-121348366D01*
X93746911Y-121328934D01*
X93751718Y-121327780D01*
X93751724Y-121327779D01*
X93902830Y-121291501D01*
X93987742Y-121271115D01*
X93992315Y-121269221D01*
X94211989Y-121178229D01*
X94211993Y-121178227D01*
X94216563Y-121176334D01*
X94427740Y-121046925D01*
X94616073Y-120886073D01*
X94776925Y-120697740D01*
X94906334Y-120486563D01*
X95001115Y-120257742D01*
X95021501Y-120172830D01*
X95057779Y-120021724D01*
X95057780Y-120021718D01*
X95058934Y-120016911D01*
X95078366Y-119770000D01*
X95058934Y-119523089D01*
X95057780Y-119518282D01*
X95057779Y-119518276D01*
X95002270Y-119287070D01*
X95001115Y-119282258D01*
X94906334Y-119053437D01*
X94776925Y-118842260D01*
X94616073Y-118653927D01*
X94427740Y-118493075D01*
X94216563Y-118363666D01*
X94148342Y-118335408D01*
X94093062Y-118290859D01*
X94070641Y-118223496D01*
X94088199Y-118154705D01*
X94140162Y-118106326D01*
X94196561Y-118092999D01*
X94509669Y-118092999D01*
X94516490Y-118092629D01*
X94567352Y-118087105D01*
X94582604Y-118083479D01*
X94703054Y-118038324D01*
X94718649Y-118029786D01*
X94820724Y-117953285D01*
X94833285Y-117940724D01*
X94909786Y-117838649D01*
X94918324Y-117823054D01*
X94963478Y-117702606D01*
X94967105Y-117687351D01*
X94972631Y-117636486D01*
X94973000Y-117629672D01*
X94973000Y-116942115D01*
X94968525Y-116926876D01*
X94967135Y-116925671D01*
X94959452Y-116924000D01*
X92045116Y-116924000D01*
X92029877Y-116928475D01*
X92028672Y-116929865D01*
X92027001Y-116937548D01*
X92027001Y-117629669D01*
X92027371Y-117636490D01*
X92032895Y-117687352D01*
X92036521Y-117702604D01*
X92081676Y-117823054D01*
X92090214Y-117838649D01*
X92166715Y-117940724D01*
X92179276Y-117953285D01*
X92281351Y-118029786D01*
X92296946Y-118038324D01*
X92417394Y-118083478D01*
X92432649Y-118087105D01*
X92483514Y-118092631D01*
X92490328Y-118093000D01*
X92803438Y-118093000D01*
X92871559Y-118113002D01*
X92918052Y-118166658D01*
X92928156Y-118236932D01*
X92898662Y-118301512D01*
X92851657Y-118335408D01*
X92823360Y-118347129D01*
X92788011Y-118361771D01*
X92788007Y-118361773D01*
X92783437Y-118363666D01*
X92572260Y-118493075D01*
X92383927Y-118653927D01*
X92223075Y-118842260D01*
X92093666Y-119053437D01*
X91998885Y-119282258D01*
X91997730Y-119287070D01*
X91942221Y-119518276D01*
X91942220Y-119518282D01*
X91941066Y-119523089D01*
X91921634Y-119770000D01*
X88108500Y-119770000D01*
X88108500Y-118069502D01*
X88109578Y-118053056D01*
X88112672Y-118029554D01*
X88113750Y-118021366D01*
X88108500Y-117981488D01*
X88108500Y-117981481D01*
X88092838Y-117862516D01*
X88031524Y-117714491D01*
X88031524Y-117714490D01*
X88022404Y-117702604D01*
X87958483Y-117619302D01*
X87958477Y-117619294D01*
X87958474Y-117619291D01*
X87933987Y-117587379D01*
X87927432Y-117582349D01*
X87908621Y-117567914D01*
X87896230Y-117557047D01*
X86737068Y-116397885D01*
X92027000Y-116397885D01*
X92031475Y-116413124D01*
X92032865Y-116414329D01*
X92040548Y-116416000D01*
X93227885Y-116416000D01*
X93243124Y-116411525D01*
X93244329Y-116410135D01*
X93246000Y-116402452D01*
X93246000Y-116397885D01*
X93754000Y-116397885D01*
X93758475Y-116413124D01*
X93759865Y-116414329D01*
X93767548Y-116416000D01*
X94954884Y-116416000D01*
X94970123Y-116411525D01*
X94971328Y-116410135D01*
X94972999Y-116402452D01*
X94972999Y-115710331D01*
X94972629Y-115703510D01*
X94967105Y-115652648D01*
X94963479Y-115637396D01*
X94918324Y-115516946D01*
X94909786Y-115501351D01*
X94833285Y-115399276D01*
X94820724Y-115386715D01*
X94718649Y-115310214D01*
X94703054Y-115301676D01*
X94582606Y-115256522D01*
X94567351Y-115252895D01*
X94516486Y-115247369D01*
X94509672Y-115247000D01*
X93772115Y-115247000D01*
X93756876Y-115251475D01*
X93755671Y-115252865D01*
X93754000Y-115260548D01*
X93754000Y-116397885D01*
X93246000Y-116397885D01*
X93246000Y-115265116D01*
X93241525Y-115249877D01*
X93240135Y-115248672D01*
X93232452Y-115247001D01*
X92490331Y-115247001D01*
X92483510Y-115247371D01*
X92432648Y-115252895D01*
X92417396Y-115256521D01*
X92296946Y-115301676D01*
X92281351Y-115310214D01*
X92179276Y-115386715D01*
X92166715Y-115399276D01*
X92090214Y-115501351D01*
X92081676Y-115516946D01*
X92036522Y-115637394D01*
X92032895Y-115652649D01*
X92027369Y-115703514D01*
X92027000Y-115710328D01*
X92027000Y-116397885D01*
X86737068Y-116397885D01*
X85791459Y-115452276D01*
X85757433Y-115389964D01*
X85762498Y-115319149D01*
X85805045Y-115262313D01*
X85825121Y-115250030D01*
X85894044Y-115216265D01*
X85894052Y-115216260D01*
X85898684Y-115213991D01*
X86087243Y-115079494D01*
X86251303Y-114916005D01*
X86320370Y-114819888D01*
X86376365Y-114776240D01*
X86447068Y-114769794D01*
X86510033Y-114802597D01*
X86530128Y-114827584D01*
X86531799Y-114830311D01*
X86531804Y-114830317D01*
X86534501Y-114834719D01*
X86686147Y-115009784D01*
X86864349Y-115157730D01*
X87064322Y-115274584D01*
X87280694Y-115357209D01*
X87285760Y-115358240D01*
X87285761Y-115358240D01*
X87338846Y-115369040D01*
X87507656Y-115403385D01*
X87638324Y-115408176D01*
X87733949Y-115411683D01*
X87733953Y-115411683D01*
X87739113Y-115411872D01*
X87744233Y-115411216D01*
X87744235Y-115411216D01*
X87837470Y-115399272D01*
X87968847Y-115382442D01*
X87973795Y-115380957D01*
X87973802Y-115380956D01*
X88185747Y-115317369D01*
X88190690Y-115315886D01*
X88202268Y-115310214D01*
X88394049Y-115216262D01*
X88394052Y-115216260D01*
X88398684Y-115213991D01*
X88587243Y-115079494D01*
X88751303Y-114916005D01*
X88820370Y-114819888D01*
X88876365Y-114776240D01*
X88947068Y-114769794D01*
X89010033Y-114802597D01*
X89030128Y-114827584D01*
X89031799Y-114830311D01*
X89031804Y-114830317D01*
X89034501Y-114834719D01*
X89186147Y-115009784D01*
X89364349Y-115157730D01*
X89564322Y-115274584D01*
X89780694Y-115357209D01*
X89785760Y-115358240D01*
X89785761Y-115358240D01*
X89838846Y-115369040D01*
X90007656Y-115403385D01*
X90138324Y-115408176D01*
X90233949Y-115411683D01*
X90233953Y-115411683D01*
X90239113Y-115411872D01*
X90244233Y-115411216D01*
X90244235Y-115411216D01*
X90337470Y-115399272D01*
X90468847Y-115382442D01*
X90473795Y-115380957D01*
X90473802Y-115380956D01*
X90685747Y-115317369D01*
X90690690Y-115315886D01*
X90702268Y-115310214D01*
X90894049Y-115216262D01*
X90894052Y-115216260D01*
X90898684Y-115213991D01*
X91087243Y-115079494D01*
X91251303Y-114916005D01*
X91386458Y-114727917D01*
X91480946Y-114536735D01*
X91486784Y-114524922D01*
X91486785Y-114524920D01*
X91489078Y-114520280D01*
X91556408Y-114298671D01*
X91586640Y-114069041D01*
X91588327Y-114000000D01*
X91582032Y-113923434D01*
X91569773Y-113774318D01*
X91569772Y-113774312D01*
X91569349Y-113769167D01*
X91512925Y-113544533D01*
X91420570Y-113332131D01*
X91294764Y-113137665D01*
X91138887Y-112966358D01*
X91134836Y-112963159D01*
X91134832Y-112963155D01*
X90961177Y-112826011D01*
X90961172Y-112826008D01*
X90957123Y-112822810D01*
X90952607Y-112820317D01*
X90952604Y-112820315D01*
X90758879Y-112713373D01*
X90758875Y-112713371D01*
X90754355Y-112710876D01*
X90749486Y-112709152D01*
X90749482Y-112709150D01*
X90540903Y-112635288D01*
X90540899Y-112635287D01*
X90536028Y-112633562D01*
X90530935Y-112632655D01*
X90530932Y-112632654D01*
X90313095Y-112593851D01*
X90313089Y-112593850D01*
X90308006Y-112592945D01*
X90235096Y-112592054D01*
X90081581Y-112590179D01*
X90081579Y-112590179D01*
X90076411Y-112590116D01*
X89847464Y-112625150D01*
X89627314Y-112697106D01*
X89622726Y-112699494D01*
X89622722Y-112699496D01*
X89426461Y-112801663D01*
X89421872Y-112804052D01*
X89417739Y-112807155D01*
X89417736Y-112807157D01*
X89392625Y-112826011D01*
X89236655Y-112943117D01*
X89076639Y-113110564D01*
X89029836Y-113179174D01*
X88974927Y-113224175D01*
X88904402Y-113232346D01*
X88840655Y-113201092D01*
X88819959Y-113176609D01*
X88797577Y-113142013D01*
X88797574Y-113142009D01*
X88794764Y-113137665D01*
X88638887Y-112966358D01*
X88634836Y-112963159D01*
X88634832Y-112963155D01*
X88461177Y-112826011D01*
X88461172Y-112826008D01*
X88457123Y-112822810D01*
X88452607Y-112820317D01*
X88452604Y-112820315D01*
X88258879Y-112713373D01*
X88258875Y-112713371D01*
X88254355Y-112710876D01*
X88249486Y-112709152D01*
X88249482Y-112709150D01*
X88040903Y-112635288D01*
X88040899Y-112635287D01*
X88036028Y-112633562D01*
X88030935Y-112632655D01*
X88030932Y-112632654D01*
X87813095Y-112593851D01*
X87813089Y-112593850D01*
X87808006Y-112592945D01*
X87746003Y-112592188D01*
X87678132Y-112571355D01*
X87632298Y-112517136D01*
X87623053Y-112446744D01*
X87653332Y-112382528D01*
X87658447Y-112377102D01*
X89640144Y-110395405D01*
X89702456Y-110361379D01*
X89729239Y-110358500D01*
X93801886Y-110358500D01*
X93818329Y-110359578D01*
X93850022Y-110363750D01*
X93858211Y-110362672D01*
X93889896Y-110358501D01*
X93889906Y-110358500D01*
X93889907Y-110358500D01*
X93989479Y-110345391D01*
X94000686Y-110343916D01*
X94000688Y-110343915D01*
X94008873Y-110342838D01*
X94156898Y-110281524D01*
X94252094Y-110208477D01*
X94252097Y-110208474D01*
X94284009Y-110183987D01*
X94289039Y-110177432D01*
X94303474Y-110158621D01*
X94314341Y-110146230D01*
X95146234Y-109314337D01*
X95158625Y-109303470D01*
X95177437Y-109289035D01*
X95183987Y-109284009D01*
X95208474Y-109252097D01*
X95208480Y-109252091D01*
X95276496Y-109163451D01*
X95276497Y-109163449D01*
X95281524Y-109156898D01*
X95342838Y-109008873D01*
X95345391Y-108989479D01*
X95358500Y-108889907D01*
X95358500Y-108889902D01*
X95363750Y-108850022D01*
X95359578Y-108818329D01*
X95358500Y-108801886D01*
X95358500Y-82298144D01*
X95359578Y-82281698D01*
X95362673Y-82258188D01*
X95363751Y-82250000D01*
X95342838Y-82091149D01*
X95281524Y-81943124D01*
X95208478Y-81847929D01*
X95208474Y-81847925D01*
X95208471Y-81847921D01*
X95189016Y-81822566D01*
X95189013Y-81822563D01*
X95183987Y-81816013D01*
X95177432Y-81810983D01*
X95158621Y-81796548D01*
X95146230Y-81785681D01*
X92699719Y-79339170D01*
X92665693Y-79276858D01*
X92663159Y-79253284D01*
X92663504Y-79250000D01*
X92651301Y-79133891D01*
X92644232Y-79066635D01*
X92644232Y-79066633D01*
X92643542Y-79060072D01*
X92584527Y-78878444D01*
X92489040Y-78713056D01*
X92361253Y-78571134D01*
X92206752Y-78458882D01*
X92200724Y-78456198D01*
X92200722Y-78456197D01*
X92038319Y-78383891D01*
X92038318Y-78383891D01*
X92032288Y-78381206D01*
X91938888Y-78361353D01*
X91851944Y-78342872D01*
X91851939Y-78342872D01*
X91845487Y-78341500D01*
X91654513Y-78341500D01*
X91648061Y-78342872D01*
X91648056Y-78342872D01*
X91561112Y-78361353D01*
X91467712Y-78381206D01*
X91461682Y-78383891D01*
X91461681Y-78383891D01*
X91299278Y-78456197D01*
X91299276Y-78456198D01*
X91293248Y-78458882D01*
X91138747Y-78571134D01*
X91010960Y-78713056D01*
X90915473Y-78878444D01*
X90856458Y-79060072D01*
X90855768Y-79066633D01*
X90855768Y-79066635D01*
X90848699Y-79133891D01*
X90836496Y-79250000D01*
X90837186Y-79256565D01*
X90844489Y-79326045D01*
X90856458Y-79439928D01*
X90915473Y-79621556D01*
X91010960Y-79786944D01*
X91015378Y-79791851D01*
X91015379Y-79791852D01*
X91037694Y-79816635D01*
X91138747Y-79928866D01*
X91293248Y-80041118D01*
X91299276Y-80043802D01*
X91299278Y-80043803D01*
X91308523Y-80047919D01*
X91467712Y-80118794D01*
X91561112Y-80138647D01*
X91648056Y-80157128D01*
X91648061Y-80157128D01*
X91654513Y-80158500D01*
X91745761Y-80158500D01*
X91813882Y-80178502D01*
X91834856Y-80195405D01*
X94104595Y-82465144D01*
X94138621Y-82527456D01*
X94141500Y-82554239D01*
X94141500Y-90012619D01*
X94121498Y-90080740D01*
X94067842Y-90127233D01*
X93997568Y-90137337D01*
X93932988Y-90107843D01*
X93918415Y-90092933D01*
X93909771Y-90082484D01*
X93909758Y-90082470D01*
X93907233Y-90079418D01*
X93677140Y-89863346D01*
X93421779Y-89677816D01*
X93145179Y-89525753D01*
X93141510Y-89524300D01*
X93141505Y-89524298D01*
X92855372Y-89411010D01*
X92855371Y-89411010D01*
X92851702Y-89409557D01*
X92634991Y-89353915D01*
X92573986Y-89317601D01*
X92542297Y-89254069D01*
X92549987Y-89183490D01*
X92557208Y-89168874D01*
X92581223Y-89127279D01*
X92581224Y-89127278D01*
X92584527Y-89121556D01*
X92643542Y-88939928D01*
X92663504Y-88750000D01*
X92643542Y-88560072D01*
X92584527Y-88378444D01*
X92489040Y-88213056D01*
X92361253Y-88071134D01*
X92206752Y-87958882D01*
X92200724Y-87956198D01*
X92200722Y-87956197D01*
X92038319Y-87883891D01*
X92038318Y-87883891D01*
X92032288Y-87881206D01*
X91938888Y-87861353D01*
X91851944Y-87842872D01*
X91851939Y-87842872D01*
X91845487Y-87841500D01*
X91654513Y-87841500D01*
X91648061Y-87842872D01*
X91648056Y-87842872D01*
X91561112Y-87861353D01*
X91467712Y-87881206D01*
X91461682Y-87883891D01*
X91461681Y-87883891D01*
X91299278Y-87956197D01*
X91299276Y-87956198D01*
X91293248Y-87958882D01*
X91138747Y-88071134D01*
X91010960Y-88213056D01*
X90915473Y-88378444D01*
X90913433Y-88384724D01*
X90913432Y-88384725D01*
X90878838Y-88491193D01*
X90848100Y-88541351D01*
X89103766Y-90285685D01*
X89091375Y-90296552D01*
X89066013Y-90316013D01*
X89041526Y-90347925D01*
X89041523Y-90347928D01*
X88968476Y-90443124D01*
X88918288Y-90564289D01*
X88907162Y-90591150D01*
X88891500Y-90710115D01*
X88891500Y-90710120D01*
X88886250Y-90750000D01*
X88887328Y-90758188D01*
X88890422Y-90781690D01*
X88891500Y-90798136D01*
X88891500Y-93201864D01*
X88890422Y-93218307D01*
X88886250Y-93250000D01*
X88891500Y-93289880D01*
X88891500Y-93289885D01*
X88904609Y-93389457D01*
X88907162Y-93408851D01*
X88968476Y-93556876D01*
X88973503Y-93563427D01*
X88973504Y-93563429D01*
X89041520Y-93652069D01*
X89041526Y-93652075D01*
X89066013Y-93683987D01*
X89072568Y-93689017D01*
X89091379Y-93703452D01*
X89103770Y-93714319D01*
X90729106Y-95339655D01*
X90763132Y-95401967D01*
X90766011Y-95428750D01*
X90766011Y-97336717D01*
X90746009Y-97404838D01*
X90692353Y-97451331D01*
X90622079Y-97461435D01*
X90597951Y-97455490D01*
X90540903Y-97435288D01*
X90540899Y-97435287D01*
X90536028Y-97433562D01*
X90530935Y-97432655D01*
X90530932Y-97432654D01*
X90313095Y-97393851D01*
X90313089Y-97393850D01*
X90308006Y-97392945D01*
X90235096Y-97392054D01*
X90081581Y-97390179D01*
X90081579Y-97390179D01*
X90076411Y-97390116D01*
X89847464Y-97425150D01*
X89627314Y-97497106D01*
X89622726Y-97499494D01*
X89622722Y-97499496D01*
X89426461Y-97601663D01*
X89421872Y-97604052D01*
X89417739Y-97607155D01*
X89417736Y-97607157D01*
X89392625Y-97626011D01*
X89236655Y-97743117D01*
X89076639Y-97910564D01*
X89029836Y-97979174D01*
X88974927Y-98024175D01*
X88904402Y-98032346D01*
X88840655Y-98001092D01*
X88819959Y-97976609D01*
X88797577Y-97942013D01*
X88797576Y-97942012D01*
X88794764Y-97937665D01*
X88638887Y-97766358D01*
X88634836Y-97763159D01*
X88634832Y-97763155D01*
X88461177Y-97626011D01*
X88461172Y-97626008D01*
X88457123Y-97622810D01*
X88452607Y-97620317D01*
X88452604Y-97620315D01*
X88258879Y-97513373D01*
X88258875Y-97513371D01*
X88254355Y-97510876D01*
X88249486Y-97509152D01*
X88249482Y-97509150D01*
X88040903Y-97435288D01*
X88040899Y-97435287D01*
X88036028Y-97433562D01*
X88030935Y-97432655D01*
X88030932Y-97432654D01*
X87813095Y-97393851D01*
X87813089Y-97393850D01*
X87808006Y-97392945D01*
X87735096Y-97392054D01*
X87581581Y-97390179D01*
X87581579Y-97390179D01*
X87576411Y-97390116D01*
X87347464Y-97425150D01*
X87300204Y-97440597D01*
X87249134Y-97457289D01*
X87178170Y-97459440D01*
X87117308Y-97422884D01*
X87085872Y-97359226D01*
X87083989Y-97337524D01*
X87083989Y-82328750D01*
X87103991Y-82260629D01*
X87120894Y-82239655D01*
X88415143Y-80945405D01*
X88477455Y-80911380D01*
X88504238Y-80908500D01*
X88595487Y-80908500D01*
X88601939Y-80907128D01*
X88601944Y-80907128D01*
X88688888Y-80888647D01*
X88782288Y-80868794D01*
X88788319Y-80866109D01*
X88950722Y-80793803D01*
X88950724Y-80793802D01*
X88956752Y-80791118D01*
X89111253Y-80678866D01*
X89239040Y-80536944D01*
X89334527Y-80371556D01*
X89393542Y-80189928D01*
X89396990Y-80157128D01*
X89412814Y-80006565D01*
X89413504Y-80000000D01*
X89406028Y-79928866D01*
X89394232Y-79816635D01*
X89394232Y-79816633D01*
X89393542Y-79810072D01*
X89334527Y-79628444D01*
X89239040Y-79463056D01*
X89218216Y-79439928D01*
X89115675Y-79326045D01*
X89115674Y-79326044D01*
X89111253Y-79321134D01*
X88956752Y-79208882D01*
X88950724Y-79206198D01*
X88950722Y-79206197D01*
X88788319Y-79133891D01*
X88788318Y-79133891D01*
X88782288Y-79131206D01*
X88688888Y-79111353D01*
X88601944Y-79092872D01*
X88601939Y-79092872D01*
X88595487Y-79091500D01*
X88404513Y-79091500D01*
X88398061Y-79092872D01*
X88398056Y-79092872D01*
X88311112Y-79111353D01*
X88217712Y-79131206D01*
X88211682Y-79133891D01*
X88211681Y-79133891D01*
X88049278Y-79206197D01*
X88049276Y-79206198D01*
X88043248Y-79208882D01*
X87888747Y-79321134D01*
X87884326Y-79326044D01*
X87884325Y-79326045D01*
X87781785Y-79439928D01*
X87760960Y-79463056D01*
X87665473Y-79628444D01*
X87606458Y-79810072D01*
X87605768Y-79816633D01*
X87605768Y-79816635D01*
X87593972Y-79928866D01*
X87586496Y-80000000D01*
X87586684Y-80001786D01*
X87567184Y-80068196D01*
X87550281Y-80089170D01*
X86079255Y-81560196D01*
X86066864Y-81571063D01*
X86041502Y-81590524D01*
X86017015Y-81622436D01*
X86017012Y-81622439D01*
X85943965Y-81717635D01*
X85882651Y-81865660D01*
X85882651Y-81865661D01*
X85880903Y-81878937D01*
X85872453Y-81943124D01*
X85866989Y-81984626D01*
X85866989Y-81984631D01*
X85861739Y-82024511D01*
X85862817Y-82032699D01*
X85865911Y-82056201D01*
X85866989Y-82072647D01*
X85866989Y-90864113D01*
X85846987Y-90932234D01*
X85793331Y-90978727D01*
X85723057Y-90988831D01*
X85658477Y-90959337D01*
X85621156Y-90903049D01*
X85613182Y-90878507D01*
X85613182Y-90878506D01*
X85611956Y-90874734D01*
X85553261Y-90750000D01*
X85479250Y-90592717D01*
X85479246Y-90592710D01*
X85477562Y-90589131D01*
X85308432Y-90322625D01*
X85118414Y-90092933D01*
X85109758Y-90082470D01*
X85109757Y-90082469D01*
X85107233Y-90079418D01*
X84877140Y-89863346D01*
X84621779Y-89677816D01*
X84345179Y-89525753D01*
X84341510Y-89524300D01*
X84341505Y-89524298D01*
X84055372Y-89411010D01*
X84055371Y-89411010D01*
X84051702Y-89409557D01*
X83745975Y-89331060D01*
X83432821Y-89291500D01*
X83117179Y-89291500D01*
X82804025Y-89331060D01*
X82498298Y-89409557D01*
X82494629Y-89411010D01*
X82494628Y-89411010D01*
X82208495Y-89524298D01*
X82208490Y-89524300D01*
X82204821Y-89525753D01*
X81928221Y-89677816D01*
X81672860Y-89863346D01*
X81570753Y-89959231D01*
X81507403Y-89991282D01*
X81436781Y-89983995D01*
X81381310Y-89939684D01*
X81358500Y-89867381D01*
X81358500Y-81154239D01*
X81378502Y-81086118D01*
X81395405Y-81065144D01*
X86745144Y-75715405D01*
X86807456Y-75681379D01*
X86834239Y-75678500D01*
X89529290Y-75678500D01*
X89597411Y-75698502D01*
X89622926Y-75720189D01*
X89648747Y-75748866D01*
X89803248Y-75861118D01*
X89809276Y-75863802D01*
X89809278Y-75863803D01*
X89971681Y-75936109D01*
X89977712Y-75938794D01*
X90071112Y-75958647D01*
X90158056Y-75977128D01*
X90158061Y-75977128D01*
X90164513Y-75978500D01*
X90355487Y-75978500D01*
X90361939Y-75977128D01*
X90361944Y-75977128D01*
X90448888Y-75958647D01*
X90542288Y-75938794D01*
X90548319Y-75936109D01*
X90710722Y-75863803D01*
X90710724Y-75863802D01*
X90716752Y-75861118D01*
X90871253Y-75748866D01*
X90897074Y-75720189D01*
X90994621Y-75611852D01*
X90994622Y-75611851D01*
X90999040Y-75606944D01*
X91094527Y-75441556D01*
X91153542Y-75259928D01*
X91154586Y-75250000D01*
X91172814Y-75076565D01*
X91173504Y-75070000D01*
X91163191Y-74971880D01*
X91175963Y-74902044D01*
X91224465Y-74850197D01*
X91293298Y-74832802D01*
X91360607Y-74855383D01*
X91368985Y-74861766D01*
X91424349Y-74907730D01*
X91624322Y-75024584D01*
X91840694Y-75107209D01*
X91845760Y-75108240D01*
X91845761Y-75108240D01*
X91898846Y-75119040D01*
X92067656Y-75153385D01*
X92198324Y-75158176D01*
X92293949Y-75161683D01*
X92293953Y-75161683D01*
X92299113Y-75161872D01*
X92304233Y-75161216D01*
X92304235Y-75161216D01*
X92403668Y-75148478D01*
X92528847Y-75132442D01*
X92533795Y-75130957D01*
X92533802Y-75130956D01*
X92745747Y-75067369D01*
X92750690Y-75065886D01*
X92831236Y-75026427D01*
X92954049Y-74966262D01*
X92954052Y-74966260D01*
X92958684Y-74963991D01*
X93147243Y-74829494D01*
X93150898Y-74825852D01*
X93150906Y-74825845D01*
X93192697Y-74784199D01*
X93255068Y-74750282D01*
X93325875Y-74755470D01*
X93382637Y-74798116D01*
X93399619Y-74829218D01*
X93421677Y-74888056D01*
X93430214Y-74903649D01*
X93506715Y-75005724D01*
X93519276Y-75018285D01*
X93621351Y-75094786D01*
X93636946Y-75103324D01*
X93757394Y-75148478D01*
X93772649Y-75152105D01*
X93823514Y-75157631D01*
X93830328Y-75158000D01*
X94502885Y-75158000D01*
X94518124Y-75153525D01*
X94519329Y-75152135D01*
X94521000Y-75144452D01*
X94521000Y-75139884D01*
X95029000Y-75139884D01*
X95033475Y-75155123D01*
X95034865Y-75156328D01*
X95042548Y-75157999D01*
X95719669Y-75157999D01*
X95726490Y-75157629D01*
X95777352Y-75152105D01*
X95792604Y-75148479D01*
X95913054Y-75103324D01*
X95928649Y-75094786D01*
X96030724Y-75018285D01*
X96043285Y-75005724D01*
X96119786Y-74903649D01*
X96128324Y-74888054D01*
X96173478Y-74767606D01*
X96177105Y-74752351D01*
X96182631Y-74701486D01*
X96183000Y-74694672D01*
X96183000Y-74022115D01*
X96178525Y-74006876D01*
X96177135Y-74005671D01*
X96169452Y-74004000D01*
X95047115Y-74004000D01*
X95031876Y-74008475D01*
X95030671Y-74009865D01*
X95029000Y-74017548D01*
X95029000Y-75139884D01*
X94521000Y-75139884D01*
X94521000Y-73477885D01*
X95029000Y-73477885D01*
X95033475Y-73493124D01*
X95034865Y-73494329D01*
X95042548Y-73496000D01*
X96164884Y-73496000D01*
X96180123Y-73491525D01*
X96181328Y-73490135D01*
X96182999Y-73482452D01*
X96182999Y-72805331D01*
X96182629Y-72798510D01*
X96177105Y-72747648D01*
X96173479Y-72732396D01*
X96128324Y-72611946D01*
X96119786Y-72596351D01*
X96043285Y-72494276D01*
X96030724Y-72481715D01*
X95928649Y-72405214D01*
X95913054Y-72396676D01*
X95792606Y-72351522D01*
X95777351Y-72347895D01*
X95726486Y-72342369D01*
X95719672Y-72342000D01*
X95047115Y-72342000D01*
X95031876Y-72346475D01*
X95030671Y-72347865D01*
X95029000Y-72355548D01*
X95029000Y-73477885D01*
X94521000Y-73477885D01*
X94521000Y-72360116D01*
X94516525Y-72344877D01*
X94515135Y-72343672D01*
X94507452Y-72342001D01*
X93830331Y-72342001D01*
X93823510Y-72342371D01*
X93772648Y-72347895D01*
X93757396Y-72351521D01*
X93636946Y-72396676D01*
X93621351Y-72405214D01*
X93519276Y-72481715D01*
X93506715Y-72494276D01*
X93430214Y-72596351D01*
X93421675Y-72611948D01*
X93400934Y-72667275D01*
X93358293Y-72724040D01*
X93291731Y-72748740D01*
X93222383Y-72733533D01*
X93199388Y-72716909D01*
X93198887Y-72716358D01*
X93136737Y-72667275D01*
X93021177Y-72576011D01*
X93021172Y-72576008D01*
X93017123Y-72572810D01*
X93012607Y-72570317D01*
X93012604Y-72570315D01*
X92818879Y-72463373D01*
X92818875Y-72463371D01*
X92814355Y-72460876D01*
X92809486Y-72459152D01*
X92809482Y-72459150D01*
X92600903Y-72385288D01*
X92600899Y-72385287D01*
X92596028Y-72383562D01*
X92590935Y-72382655D01*
X92590932Y-72382654D01*
X92373095Y-72343851D01*
X92373089Y-72343850D01*
X92368006Y-72342945D01*
X92290644Y-72342000D01*
X92141581Y-72340179D01*
X92141579Y-72340179D01*
X92136411Y-72340116D01*
X91907464Y-72375150D01*
X91687314Y-72447106D01*
X91682726Y-72449494D01*
X91682722Y-72449496D01*
X91486461Y-72551663D01*
X91481872Y-72554052D01*
X91477739Y-72557155D01*
X91477736Y-72557157D01*
X91300790Y-72690012D01*
X91296655Y-72693117D01*
X91136639Y-72860564D01*
X91133725Y-72864836D01*
X91133724Y-72864837D01*
X91118152Y-72887665D01*
X91006119Y-73051899D01*
X90908602Y-73261981D01*
X90846707Y-73485169D01*
X90822095Y-73715469D01*
X90822392Y-73720622D01*
X90822392Y-73720625D01*
X90828067Y-73819041D01*
X90835427Y-73946697D01*
X90836564Y-73951743D01*
X90836565Y-73951749D01*
X90876676Y-74129733D01*
X90872140Y-74200585D01*
X90830018Y-74257736D01*
X90763685Y-74283042D01*
X90702510Y-74272541D01*
X90548319Y-74203891D01*
X90548318Y-74203891D01*
X90542288Y-74201206D01*
X90448887Y-74181353D01*
X90361944Y-74162872D01*
X90361939Y-74162872D01*
X90355487Y-74161500D01*
X90164513Y-74161500D01*
X90158061Y-74162872D01*
X90158056Y-74162872D01*
X90071113Y-74181353D01*
X89977712Y-74201206D01*
X89971682Y-74203891D01*
X89971681Y-74203891D01*
X89809278Y-74276197D01*
X89809276Y-74276198D01*
X89803248Y-74278882D01*
X89648747Y-74391134D01*
X89644334Y-74396036D01*
X89644332Y-74396037D01*
X89622926Y-74419811D01*
X89562480Y-74457050D01*
X89529290Y-74461500D01*
X86578136Y-74461500D01*
X86561690Y-74460422D01*
X86538188Y-74457328D01*
X86530000Y-74456250D01*
X86521812Y-74457328D01*
X86490129Y-74461499D01*
X86490120Y-74461500D01*
X86490115Y-74461500D01*
X86371150Y-74477162D01*
X86363521Y-74480322D01*
X86356278Y-74483322D01*
X86223125Y-74538476D01*
X86223123Y-74538477D01*
X86223124Y-74538477D01*
X86127928Y-74611523D01*
X86127925Y-74611526D01*
X86096013Y-74636013D01*
X86095087Y-74637220D01*
X86035511Y-74669747D01*
X85964696Y-74664679D01*
X85915098Y-74630935D01*
X85865675Y-74576045D01*
X85865674Y-74576044D01*
X85861253Y-74571134D01*
X85814163Y-74536921D01*
X85770810Y-74480700D01*
X85764735Y-74409964D01*
X85775267Y-74379160D01*
X85826787Y-74274916D01*
X85826788Y-74274914D01*
X85829078Y-74270280D01*
X85896408Y-74048671D01*
X85926640Y-73819041D01*
X85928327Y-73750000D01*
X85922032Y-73673434D01*
X85909773Y-73524318D01*
X85909772Y-73524312D01*
X85909349Y-73519167D01*
X85852925Y-73294533D01*
X85850866Y-73289797D01*
X85762630Y-73086868D01*
X85762628Y-73086865D01*
X85760570Y-73082131D01*
X85634764Y-72887665D01*
X85478887Y-72716358D01*
X85474836Y-72713159D01*
X85474832Y-72713155D01*
X85301177Y-72576011D01*
X85301172Y-72576008D01*
X85297123Y-72572810D01*
X85292607Y-72570317D01*
X85292604Y-72570315D01*
X85098879Y-72463373D01*
X85098875Y-72463371D01*
X85094355Y-72460876D01*
X85089486Y-72459152D01*
X85089482Y-72459150D01*
X84880903Y-72385288D01*
X84880899Y-72385287D01*
X84876028Y-72383562D01*
X84870935Y-72382655D01*
X84870932Y-72382654D01*
X84653095Y-72343851D01*
X84653089Y-72343850D01*
X84648006Y-72342945D01*
X84570644Y-72342000D01*
X84421581Y-72340179D01*
X84421579Y-72340179D01*
X84416411Y-72340116D01*
X84187464Y-72375150D01*
X83967314Y-72447106D01*
X83962726Y-72449494D01*
X83962722Y-72449496D01*
X83766461Y-72551663D01*
X83761872Y-72554052D01*
X83757739Y-72557155D01*
X83757736Y-72557157D01*
X83580790Y-72690012D01*
X83576655Y-72693117D01*
X83573083Y-72696855D01*
X83558787Y-72711815D01*
X83497263Y-72747245D01*
X83426351Y-72743788D01*
X83368564Y-72702543D01*
X83349711Y-72668994D01*
X83328324Y-72611946D01*
X83319786Y-72596351D01*
X83243285Y-72494276D01*
X83230724Y-72481715D01*
X83128649Y-72405214D01*
X83113054Y-72396676D01*
X82992606Y-72351522D01*
X82977351Y-72347895D01*
X82926486Y-72342369D01*
X82919672Y-72342000D01*
X82247115Y-72342000D01*
X82231876Y-72346475D01*
X82230671Y-72347865D01*
X82229000Y-72355548D01*
X82229000Y-75139884D01*
X82233475Y-75155123D01*
X82234865Y-75156328D01*
X82242548Y-75157999D01*
X82919669Y-75157999D01*
X82926490Y-75157629D01*
X82977352Y-75152105D01*
X82992604Y-75148479D01*
X83113054Y-75103324D01*
X83128649Y-75094786D01*
X83230724Y-75018285D01*
X83243285Y-75005724D01*
X83319786Y-74903649D01*
X83328324Y-74888054D01*
X83349773Y-74830840D01*
X83392415Y-74774075D01*
X83458977Y-74749376D01*
X83528325Y-74764584D01*
X83548240Y-74778126D01*
X83680652Y-74888056D01*
X83704349Y-74907730D01*
X83904322Y-75024584D01*
X84120694Y-75107209D01*
X84232882Y-75130034D01*
X84295644Y-75163214D01*
X84330506Y-75225062D01*
X84326397Y-75295939D01*
X84296853Y-75342598D01*
X80584856Y-79054595D01*
X80522544Y-79088621D01*
X80495761Y-79091500D01*
X80404513Y-79091500D01*
X80398061Y-79092872D01*
X80398056Y-79092872D01*
X80311112Y-79111353D01*
X80217712Y-79131206D01*
X80211682Y-79133891D01*
X80211681Y-79133891D01*
X80049278Y-79206197D01*
X80049276Y-79206198D01*
X80043248Y-79208882D01*
X79888747Y-79321134D01*
X79884326Y-79326044D01*
X79884325Y-79326045D01*
X79781785Y-79439928D01*
X79760960Y-79463056D01*
X79665473Y-79628444D01*
X79606458Y-79810072D01*
X79605768Y-79816633D01*
X79605768Y-79816635D01*
X79593972Y-79928866D01*
X79586496Y-80000000D01*
X78883000Y-80000000D01*
X78883000Y-74694669D01*
X80567001Y-74694669D01*
X80567371Y-74701490D01*
X80572895Y-74752352D01*
X80576521Y-74767604D01*
X80621676Y-74888054D01*
X80630214Y-74903649D01*
X80706715Y-75005724D01*
X80719276Y-75018285D01*
X80821351Y-75094786D01*
X80836946Y-75103324D01*
X80957394Y-75148478D01*
X80972649Y-75152105D01*
X81023514Y-75157631D01*
X81030328Y-75158000D01*
X81702885Y-75158000D01*
X81718124Y-75153525D01*
X81719329Y-75152135D01*
X81721000Y-75144452D01*
X81721000Y-74022115D01*
X81716525Y-74006876D01*
X81715135Y-74005671D01*
X81707452Y-74004000D01*
X80585116Y-74004000D01*
X80569877Y-74008475D01*
X80568672Y-74009865D01*
X80567001Y-74017548D01*
X80567001Y-74694669D01*
X78883000Y-74694669D01*
X78883000Y-73477885D01*
X80567000Y-73477885D01*
X80571475Y-73493124D01*
X80572865Y-73494329D01*
X80580548Y-73496000D01*
X81702885Y-73496000D01*
X81718124Y-73491525D01*
X81719329Y-73490135D01*
X81721000Y-73482452D01*
X81721000Y-72360116D01*
X81716525Y-72344877D01*
X81715135Y-72343672D01*
X81707452Y-72342001D01*
X81030331Y-72342001D01*
X81023510Y-72342371D01*
X80972648Y-72347895D01*
X80957396Y-72351521D01*
X80836946Y-72396676D01*
X80821351Y-72405214D01*
X80719276Y-72481715D01*
X80706715Y-72494276D01*
X80630214Y-72596351D01*
X80621676Y-72611946D01*
X80576522Y-72732394D01*
X80572895Y-72747649D01*
X80567369Y-72798514D01*
X80567000Y-72805328D01*
X80567000Y-73477885D01*
X78883000Y-73477885D01*
X78883000Y-69770000D01*
X81421634Y-69770000D01*
X81441066Y-70016911D01*
X81442220Y-70021718D01*
X81442221Y-70021724D01*
X81478499Y-70172830D01*
X81498885Y-70257742D01*
X81593666Y-70486563D01*
X81723075Y-70697740D01*
X81883927Y-70886073D01*
X82072260Y-71046925D01*
X82283437Y-71176334D01*
X82288007Y-71178227D01*
X82288011Y-71178229D01*
X82507685Y-71269221D01*
X82512258Y-71271115D01*
X82597170Y-71291501D01*
X82748276Y-71327779D01*
X82748282Y-71327780D01*
X82753089Y-71328934D01*
X83000000Y-71348366D01*
X83246911Y-71328934D01*
X83251718Y-71327780D01*
X83251724Y-71327779D01*
X83402830Y-71291501D01*
X83487742Y-71271115D01*
X83492315Y-71269221D01*
X83711989Y-71178229D01*
X83711993Y-71178227D01*
X83716563Y-71176334D01*
X83927740Y-71046925D01*
X84116073Y-70886073D01*
X84276925Y-70697740D01*
X84406334Y-70486563D01*
X84501115Y-70257742D01*
X84521501Y-70172830D01*
X84557779Y-70021724D01*
X84557780Y-70021718D01*
X84558934Y-70016911D01*
X84578366Y-69770000D01*
X91921634Y-69770000D01*
X91941066Y-70016911D01*
X91942220Y-70021718D01*
X91942221Y-70021724D01*
X91978499Y-70172830D01*
X91998885Y-70257742D01*
X92093666Y-70486563D01*
X92223075Y-70697740D01*
X92383927Y-70886073D01*
X92572260Y-71046925D01*
X92783437Y-71176334D01*
X92788007Y-71178227D01*
X92788011Y-71178229D01*
X93007685Y-71269221D01*
X93012258Y-71271115D01*
X93097170Y-71291501D01*
X93248276Y-71327779D01*
X93248282Y-71327780D01*
X93253089Y-71328934D01*
X93500000Y-71348366D01*
X93746911Y-71328934D01*
X93751718Y-71327780D01*
X93751724Y-71327779D01*
X93902830Y-71291501D01*
X93987742Y-71271115D01*
X93992315Y-71269221D01*
X94211989Y-71178229D01*
X94211993Y-71178227D01*
X94216563Y-71176334D01*
X94427740Y-71046925D01*
X94616073Y-70886073D01*
X94776925Y-70697740D01*
X94906334Y-70486563D01*
X95001115Y-70257742D01*
X95021501Y-70172830D01*
X95057779Y-70021724D01*
X95057780Y-70021718D01*
X95058934Y-70016911D01*
X95078366Y-69770000D01*
X95058934Y-69523089D01*
X95057780Y-69518282D01*
X95057779Y-69518276D01*
X95002270Y-69287070D01*
X95001115Y-69282258D01*
X94906334Y-69053437D01*
X94776925Y-68842260D01*
X94616073Y-68653927D01*
X94427740Y-68493075D01*
X94216563Y-68363666D01*
X94211993Y-68361773D01*
X94211989Y-68361771D01*
X93992315Y-68270779D01*
X93992313Y-68270778D01*
X93987742Y-68268885D01*
X93902830Y-68248499D01*
X93751724Y-68212221D01*
X93751718Y-68212220D01*
X93746911Y-68211066D01*
X93500000Y-68191634D01*
X93253089Y-68211066D01*
X93248282Y-68212220D01*
X93248276Y-68212221D01*
X93097170Y-68248499D01*
X93012258Y-68268885D01*
X93007687Y-68270778D01*
X93007685Y-68270779D01*
X92788011Y-68361771D01*
X92788007Y-68361773D01*
X92783437Y-68363666D01*
X92572260Y-68493075D01*
X92383927Y-68653927D01*
X92223075Y-68842260D01*
X92093666Y-69053437D01*
X91998885Y-69282258D01*
X91997730Y-69287070D01*
X91942221Y-69518276D01*
X91942220Y-69518282D01*
X91941066Y-69523089D01*
X91921634Y-69770000D01*
X84578366Y-69770000D01*
X84558934Y-69523089D01*
X84557780Y-69518282D01*
X84557779Y-69518276D01*
X84502270Y-69287070D01*
X84501115Y-69282258D01*
X84406334Y-69053437D01*
X84276925Y-68842260D01*
X84116073Y-68653927D01*
X83927740Y-68493075D01*
X83716563Y-68363666D01*
X83711993Y-68361773D01*
X83711989Y-68361771D01*
X83492315Y-68270779D01*
X83492313Y-68270778D01*
X83487742Y-68268885D01*
X83402830Y-68248499D01*
X83251724Y-68212221D01*
X83251718Y-68212220D01*
X83246911Y-68211066D01*
X83000000Y-68191634D01*
X82753089Y-68211066D01*
X82748282Y-68212220D01*
X82748276Y-68212221D01*
X82597170Y-68248499D01*
X82512258Y-68268885D01*
X82507687Y-68270778D01*
X82507685Y-68270779D01*
X82288011Y-68361771D01*
X82288007Y-68361773D01*
X82283437Y-68363666D01*
X82072260Y-68493075D01*
X81883927Y-68653927D01*
X81723075Y-68842260D01*
X81593666Y-69053437D01*
X81498885Y-69282258D01*
X81497730Y-69287070D01*
X81442221Y-69518276D01*
X81442220Y-69518282D01*
X81441066Y-69523089D01*
X81421634Y-69770000D01*
X78883000Y-69770000D01*
X78883000Y-61470000D01*
X81421634Y-61470000D01*
X81441066Y-61716911D01*
X81442220Y-61721718D01*
X81442221Y-61721724D01*
X81478499Y-61872830D01*
X81498885Y-61957742D01*
X81593666Y-62186563D01*
X81723075Y-62397740D01*
X81883927Y-62586073D01*
X82072260Y-62746925D01*
X82283437Y-62876334D01*
X82288007Y-62878227D01*
X82288011Y-62878229D01*
X82507685Y-62969221D01*
X82512258Y-62971115D01*
X82597170Y-62991501D01*
X82748276Y-63027779D01*
X82748282Y-63027780D01*
X82753089Y-63028934D01*
X83000000Y-63048366D01*
X83246911Y-63028934D01*
X83251718Y-63027780D01*
X83251724Y-63027779D01*
X83402830Y-62991501D01*
X83487742Y-62971115D01*
X83492315Y-62969221D01*
X83711989Y-62878229D01*
X83711993Y-62878227D01*
X83716563Y-62876334D01*
X83927740Y-62746925D01*
X84116073Y-62586073D01*
X84276925Y-62397740D01*
X84406334Y-62186563D01*
X84501115Y-61957742D01*
X84521501Y-61872830D01*
X84557779Y-61721724D01*
X84557780Y-61721718D01*
X84558934Y-61716911D01*
X84578366Y-61470000D01*
X91921634Y-61470000D01*
X91941066Y-61716911D01*
X91942220Y-61721718D01*
X91942221Y-61721724D01*
X91978499Y-61872830D01*
X91998885Y-61957742D01*
X92093666Y-62186563D01*
X92223075Y-62397740D01*
X92383927Y-62586073D01*
X92572260Y-62746925D01*
X92783437Y-62876334D01*
X92788007Y-62878227D01*
X92788011Y-62878229D01*
X93007685Y-62969221D01*
X93012258Y-62971115D01*
X93097170Y-62991501D01*
X93248276Y-63027779D01*
X93248282Y-63027780D01*
X93253089Y-63028934D01*
X93500000Y-63048366D01*
X93746911Y-63028934D01*
X93751718Y-63027780D01*
X93751724Y-63027779D01*
X93902830Y-62991501D01*
X93987742Y-62971115D01*
X93992315Y-62969221D01*
X94211989Y-62878229D01*
X94211993Y-62878227D01*
X94216563Y-62876334D01*
X94427740Y-62746925D01*
X94616073Y-62586073D01*
X94776925Y-62397740D01*
X94906334Y-62186563D01*
X95001115Y-61957742D01*
X95021501Y-61872830D01*
X95057779Y-61721724D01*
X95057780Y-61721718D01*
X95058934Y-61716911D01*
X95078366Y-61470000D01*
X95058934Y-61223089D01*
X95057780Y-61218282D01*
X95057779Y-61218276D01*
X95002270Y-60987070D01*
X95001115Y-60982258D01*
X94906334Y-60753437D01*
X94776925Y-60542260D01*
X94616073Y-60353927D01*
X94427740Y-60193075D01*
X94216563Y-60063666D01*
X94148342Y-60035408D01*
X94093062Y-59990859D01*
X94070641Y-59923496D01*
X94088199Y-59854705D01*
X94140162Y-59806326D01*
X94196561Y-59792999D01*
X94509669Y-59792999D01*
X94516490Y-59792629D01*
X94567352Y-59787105D01*
X94582604Y-59783479D01*
X94703054Y-59738324D01*
X94718649Y-59729786D01*
X94820724Y-59653285D01*
X94833285Y-59640724D01*
X94909786Y-59538649D01*
X94918324Y-59523054D01*
X94963478Y-59402606D01*
X94967105Y-59387351D01*
X94972631Y-59336486D01*
X94973000Y-59329672D01*
X94973000Y-58642115D01*
X94968525Y-58626876D01*
X94967135Y-58625671D01*
X94959452Y-58624000D01*
X92045116Y-58624000D01*
X92029877Y-58628475D01*
X92028672Y-58629865D01*
X92027001Y-58637548D01*
X92027001Y-59329669D01*
X92027371Y-59336490D01*
X92032895Y-59387352D01*
X92036521Y-59402604D01*
X92081676Y-59523054D01*
X92090214Y-59538649D01*
X92166715Y-59640724D01*
X92179276Y-59653285D01*
X92281351Y-59729786D01*
X92296946Y-59738324D01*
X92417394Y-59783478D01*
X92432649Y-59787105D01*
X92483514Y-59792631D01*
X92490328Y-59793000D01*
X92803438Y-59793000D01*
X92871559Y-59813002D01*
X92918052Y-59866658D01*
X92928156Y-59936932D01*
X92898662Y-60001512D01*
X92851657Y-60035408D01*
X92823360Y-60047129D01*
X92788011Y-60061771D01*
X92788007Y-60061773D01*
X92783437Y-60063666D01*
X92572260Y-60193075D01*
X92383927Y-60353927D01*
X92223075Y-60542260D01*
X92093666Y-60753437D01*
X91998885Y-60982258D01*
X91997730Y-60987070D01*
X91942221Y-61218276D01*
X91942220Y-61218282D01*
X91941066Y-61223089D01*
X91921634Y-61470000D01*
X84578366Y-61470000D01*
X84558934Y-61223089D01*
X84557780Y-61218282D01*
X84557779Y-61218276D01*
X84502270Y-60987070D01*
X84501115Y-60982258D01*
X84406334Y-60753437D01*
X84276925Y-60542260D01*
X84116073Y-60353927D01*
X83927740Y-60193075D01*
X83716563Y-60063666D01*
X83648342Y-60035408D01*
X83593062Y-59990859D01*
X83570641Y-59923496D01*
X83588199Y-59854705D01*
X83640162Y-59806326D01*
X83696561Y-59792999D01*
X84009669Y-59792999D01*
X84016490Y-59792629D01*
X84067352Y-59787105D01*
X84082604Y-59783479D01*
X84203054Y-59738324D01*
X84218649Y-59729786D01*
X84320724Y-59653285D01*
X84333285Y-59640724D01*
X84409786Y-59538649D01*
X84418324Y-59523054D01*
X84463478Y-59402606D01*
X84467105Y-59387351D01*
X84472631Y-59336486D01*
X84473000Y-59329672D01*
X84473000Y-58642115D01*
X84468525Y-58626876D01*
X84467135Y-58625671D01*
X84459452Y-58624000D01*
X81545116Y-58624000D01*
X81529877Y-58628475D01*
X81528672Y-58629865D01*
X81527001Y-58637548D01*
X81527001Y-59329669D01*
X81527371Y-59336490D01*
X81532895Y-59387352D01*
X81536521Y-59402604D01*
X81581676Y-59523054D01*
X81590214Y-59538649D01*
X81666715Y-59640724D01*
X81679276Y-59653285D01*
X81781351Y-59729786D01*
X81796946Y-59738324D01*
X81917394Y-59783478D01*
X81932649Y-59787105D01*
X81983514Y-59792631D01*
X81990328Y-59793000D01*
X82303438Y-59793000D01*
X82371559Y-59813002D01*
X82418052Y-59866658D01*
X82428156Y-59936932D01*
X82398662Y-60001512D01*
X82351657Y-60035408D01*
X82323360Y-60047129D01*
X82288011Y-60061771D01*
X82288007Y-60061773D01*
X82283437Y-60063666D01*
X82072260Y-60193075D01*
X81883927Y-60353927D01*
X81723075Y-60542260D01*
X81593666Y-60753437D01*
X81498885Y-60982258D01*
X81497730Y-60987070D01*
X81442221Y-61218276D01*
X81442220Y-61218282D01*
X81441066Y-61223089D01*
X81421634Y-61470000D01*
X78883000Y-61470000D01*
X78883000Y-58097885D01*
X81527000Y-58097885D01*
X81531475Y-58113124D01*
X81532865Y-58114329D01*
X81540548Y-58116000D01*
X82727885Y-58116000D01*
X82743124Y-58111525D01*
X82744329Y-58110135D01*
X82746000Y-58102452D01*
X82746000Y-58097885D01*
X83254000Y-58097885D01*
X83258475Y-58113124D01*
X83259865Y-58114329D01*
X83267548Y-58116000D01*
X84454884Y-58116000D01*
X84470123Y-58111525D01*
X84471328Y-58110135D01*
X84472999Y-58102452D01*
X84472999Y-58097885D01*
X92027000Y-58097885D01*
X92031475Y-58113124D01*
X92032865Y-58114329D01*
X92040548Y-58116000D01*
X93227885Y-58116000D01*
X93243124Y-58111525D01*
X93244329Y-58110135D01*
X93246000Y-58102452D01*
X93246000Y-58097885D01*
X93754000Y-58097885D01*
X93758475Y-58113124D01*
X93759865Y-58114329D01*
X93767548Y-58116000D01*
X94954884Y-58116000D01*
X94970123Y-58111525D01*
X94971328Y-58110135D01*
X94972999Y-58102452D01*
X94972999Y-57410331D01*
X94972629Y-57403510D01*
X94967105Y-57352648D01*
X94963479Y-57337396D01*
X94918324Y-57216946D01*
X94909786Y-57201351D01*
X94833285Y-57099276D01*
X94820724Y-57086715D01*
X94718649Y-57010214D01*
X94703054Y-57001676D01*
X94582606Y-56956522D01*
X94567351Y-56952895D01*
X94516486Y-56947369D01*
X94509672Y-56947000D01*
X93772115Y-56947000D01*
X93756876Y-56951475D01*
X93755671Y-56952865D01*
X93754000Y-56960548D01*
X93754000Y-58097885D01*
X93246000Y-58097885D01*
X93246000Y-56965116D01*
X93241525Y-56949877D01*
X93240135Y-56948672D01*
X93232452Y-56947001D01*
X92490331Y-56947001D01*
X92483510Y-56947371D01*
X92432648Y-56952895D01*
X92417396Y-56956521D01*
X92296946Y-57001676D01*
X92281351Y-57010214D01*
X92179276Y-57086715D01*
X92166715Y-57099276D01*
X92090214Y-57201351D01*
X92081676Y-57216946D01*
X92036522Y-57337394D01*
X92032895Y-57352649D01*
X92027369Y-57403514D01*
X92027000Y-57410328D01*
X92027000Y-58097885D01*
X84472999Y-58097885D01*
X84472999Y-57410331D01*
X84472629Y-57403510D01*
X84467105Y-57352648D01*
X84463479Y-57337396D01*
X84418324Y-57216946D01*
X84409786Y-57201351D01*
X84333285Y-57099276D01*
X84320724Y-57086715D01*
X84218649Y-57010214D01*
X84203054Y-57001676D01*
X84082606Y-56956522D01*
X84067351Y-56952895D01*
X84016486Y-56947369D01*
X84009672Y-56947000D01*
X83272115Y-56947000D01*
X83256876Y-56951475D01*
X83255671Y-56952865D01*
X83254000Y-56960548D01*
X83254000Y-58097885D01*
X82746000Y-58097885D01*
X82746000Y-56965116D01*
X82741525Y-56949877D01*
X82740135Y-56948672D01*
X82732452Y-56947001D01*
X81990331Y-56947001D01*
X81983510Y-56947371D01*
X81932648Y-56952895D01*
X81917396Y-56956521D01*
X81796946Y-57001676D01*
X81781351Y-57010214D01*
X81679276Y-57086715D01*
X81666715Y-57099276D01*
X81590214Y-57201351D01*
X81581676Y-57216946D01*
X81536522Y-57337394D01*
X81532895Y-57352649D01*
X81527369Y-57403514D01*
X81527000Y-57410328D01*
X81527000Y-58097885D01*
X78883000Y-58097885D01*
X78883000Y-40299327D01*
X78884500Y-40279943D01*
X78886805Y-40265142D01*
X78886805Y-40265138D01*
X78888186Y-40256269D01*
X78887022Y-40247367D01*
X78887022Y-40247363D01*
X78887009Y-40247267D01*
X78886738Y-40216830D01*
X78893746Y-40154625D01*
X78900025Y-40127115D01*
X78927034Y-40049929D01*
X78939276Y-40024509D01*
X78982787Y-39955262D01*
X79000379Y-39933203D01*
X79058203Y-39875379D01*
X79080262Y-39857787D01*
X79149509Y-39814276D01*
X79174930Y-39802034D01*
X79252117Y-39775025D01*
X79279624Y-39768746D01*
X79303572Y-39766048D01*
X79335256Y-39762478D01*
X79350897Y-39761695D01*
X79359855Y-39761804D01*
X79368729Y-39763186D01*
X79400251Y-39759064D01*
X79416588Y-39758000D01*
X97118566Y-39758000D01*
X97137950Y-39759500D01*
G37*
%TD.AperFunction*%
%TA.AperFunction,Conductor*%
G36*
X89485446Y-106979269D02*
G01*
X89542282Y-107021816D01*
X89567165Y-107089413D01*
X89581359Y-107315020D01*
X89640505Y-107625072D01*
X89738044Y-107925266D01*
X89739731Y-107928852D01*
X89739733Y-107928856D01*
X89870750Y-108207283D01*
X89870754Y-108207290D01*
X89872438Y-108210869D01*
X90041568Y-108477375D01*
X90242767Y-108720582D01*
X90245657Y-108723296D01*
X90245658Y-108723297D01*
X90459012Y-108923650D01*
X90494978Y-108984863D01*
X90492139Y-109055803D01*
X90451399Y-109113947D01*
X90385691Y-109140835D01*
X90372759Y-109141500D01*
X89473144Y-109141500D01*
X89456698Y-109140422D01*
X89433188Y-109137327D01*
X89425000Y-109136249D01*
X89266149Y-109157162D01*
X89118124Y-109218476D01*
X89074316Y-109252091D01*
X89022937Y-109291515D01*
X89022921Y-109291529D01*
X88997566Y-109310984D01*
X88997563Y-109310987D01*
X88991013Y-109316013D01*
X88985983Y-109322568D01*
X88971548Y-109341379D01*
X88960681Y-109353770D01*
X85699222Y-112615229D01*
X85636910Y-112649255D01*
X85568069Y-112644908D01*
X85555077Y-112640308D01*
X85536028Y-112633562D01*
X85530935Y-112632655D01*
X85530932Y-112632654D01*
X85313095Y-112593851D01*
X85313089Y-112593850D01*
X85308006Y-112592945D01*
X85235096Y-112592054D01*
X85081581Y-112590179D01*
X85081579Y-112590179D01*
X85076411Y-112590116D01*
X84847464Y-112625150D01*
X84773715Y-112649255D01*
X84749134Y-112657289D01*
X84678170Y-112659440D01*
X84617308Y-112622884D01*
X84585872Y-112559226D01*
X84583989Y-112537524D01*
X84583989Y-111828750D01*
X84603991Y-111760629D01*
X84620894Y-111739655D01*
X89352319Y-107008230D01*
X89414631Y-106974204D01*
X89485446Y-106979269D01*
G37*
%TD.AperFunction*%
%TA.AperFunction,Conductor*%
G36*
X89010033Y-99602597D02*
G01*
X89030128Y-99627584D01*
X89031799Y-99630311D01*
X89031804Y-99630317D01*
X89034501Y-99634719D01*
X89186147Y-99809784D01*
X89364349Y-99957730D01*
X89564322Y-100074584D01*
X89569147Y-100076426D01*
X89569148Y-100076427D01*
X89643665Y-100104883D01*
X89780694Y-100157209D01*
X89785760Y-100158240D01*
X89785761Y-100158240D01*
X89838846Y-100169040D01*
X90007656Y-100203385D01*
X90138324Y-100208176D01*
X90233949Y-100211683D01*
X90233953Y-100211683D01*
X90239113Y-100211872D01*
X90244233Y-100211216D01*
X90244235Y-100211216D01*
X90355494Y-100196963D01*
X90468847Y-100182442D01*
X90473795Y-100180957D01*
X90473802Y-100180956D01*
X90603804Y-100141953D01*
X90674799Y-100141537D01*
X90734749Y-100179569D01*
X90764621Y-100243976D01*
X90766011Y-100262639D01*
X90766011Y-103821250D01*
X90746009Y-103889371D01*
X90729106Y-103910345D01*
X88015234Y-106624217D01*
X87952922Y-106658243D01*
X87882107Y-106653178D01*
X87825271Y-106610631D01*
X87817024Y-106598129D01*
X87739040Y-106463056D01*
X87611253Y-106321134D01*
X87456752Y-106208882D01*
X87450724Y-106206198D01*
X87450722Y-106206197D01*
X87288319Y-106133891D01*
X87288318Y-106133891D01*
X87282288Y-106131206D01*
X87183792Y-106110270D01*
X87121319Y-106076542D01*
X87086997Y-106014392D01*
X87083989Y-105987023D01*
X87083989Y-100265084D01*
X87103991Y-100196963D01*
X87157647Y-100150470D01*
X87227921Y-100140366D01*
X87254937Y-100147374D01*
X87275858Y-100155363D01*
X87275866Y-100155365D01*
X87280694Y-100157209D01*
X87285760Y-100158240D01*
X87285761Y-100158240D01*
X87338846Y-100169040D01*
X87507656Y-100203385D01*
X87638324Y-100208176D01*
X87733949Y-100211683D01*
X87733953Y-100211683D01*
X87739113Y-100211872D01*
X87744233Y-100211216D01*
X87744235Y-100211216D01*
X87855494Y-100196963D01*
X87968847Y-100182442D01*
X87973795Y-100180957D01*
X87973802Y-100180956D01*
X88185747Y-100117369D01*
X88190690Y-100115886D01*
X88207802Y-100107503D01*
X88394049Y-100016262D01*
X88394052Y-100016260D01*
X88398684Y-100013991D01*
X88587243Y-99879494D01*
X88751303Y-99716005D01*
X88820370Y-99619888D01*
X88876365Y-99576240D01*
X88947068Y-99569794D01*
X89010033Y-99602597D01*
G37*
%TD.AperFunction*%
%TA.AperFunction,Conductor*%
G36*
X85796582Y-92622815D02*
G01*
X85848889Y-92670821D01*
X85866989Y-92735887D01*
X85866989Y-97372476D01*
X85846987Y-97440597D01*
X85793331Y-97487090D01*
X85723057Y-97497194D01*
X85698933Y-97491250D01*
X85603031Y-97457289D01*
X85540903Y-97435288D01*
X85540899Y-97435287D01*
X85536028Y-97433562D01*
X85530935Y-97432655D01*
X85530932Y-97432654D01*
X85313095Y-97393851D01*
X85313089Y-97393850D01*
X85308006Y-97392945D01*
X85235096Y-97392054D01*
X85081581Y-97390179D01*
X85081579Y-97390179D01*
X85076411Y-97390116D01*
X84847464Y-97425150D01*
X84627314Y-97497106D01*
X84622726Y-97499494D01*
X84622722Y-97499496D01*
X84426461Y-97601663D01*
X84421872Y-97604052D01*
X84417739Y-97607155D01*
X84417736Y-97607157D01*
X84392625Y-97626011D01*
X84236655Y-97743117D01*
X84076639Y-97910564D01*
X84073730Y-97914829D01*
X84073724Y-97914837D01*
X84058152Y-97937665D01*
X83946119Y-98101899D01*
X83848602Y-98311981D01*
X83786707Y-98535169D01*
X83762095Y-98765469D01*
X83775427Y-98996697D01*
X83776564Y-99001743D01*
X83776565Y-99001749D01*
X83808741Y-99144523D01*
X83826346Y-99222642D01*
X83913484Y-99437237D01*
X84034501Y-99634719D01*
X84186147Y-99809784D01*
X84364349Y-99957730D01*
X84564322Y-100074584D01*
X84569147Y-100076426D01*
X84569148Y-100076427D01*
X84643665Y-100104883D01*
X84780694Y-100157209D01*
X84785760Y-100158240D01*
X84785761Y-100158240D01*
X84838846Y-100169040D01*
X85007656Y-100203385D01*
X85138324Y-100208176D01*
X85233949Y-100211683D01*
X85233953Y-100211683D01*
X85239113Y-100211872D01*
X85244233Y-100211216D01*
X85244235Y-100211216D01*
X85355494Y-100196963D01*
X85468847Y-100182442D01*
X85473795Y-100180957D01*
X85473802Y-100180956D01*
X85685738Y-100117372D01*
X85685742Y-100117371D01*
X85690690Y-100115886D01*
X85695091Y-100113730D01*
X85765734Y-100107503D01*
X85828600Y-100140493D01*
X85863650Y-100202235D01*
X85866989Y-100231049D01*
X85866989Y-106064113D01*
X85846987Y-106132234D01*
X85793331Y-106178727D01*
X85723057Y-106188831D01*
X85658477Y-106159337D01*
X85621156Y-106103049D01*
X85613182Y-106078507D01*
X85613182Y-106078506D01*
X85611956Y-106074734D01*
X85606958Y-106064113D01*
X85479250Y-105792717D01*
X85479246Y-105792710D01*
X85477562Y-105789131D01*
X85308432Y-105522625D01*
X85118414Y-105292933D01*
X85109758Y-105282470D01*
X85109757Y-105282469D01*
X85107233Y-105279418D01*
X84877140Y-105063346D01*
X84621779Y-104877816D01*
X84345179Y-104725753D01*
X84341510Y-104724300D01*
X84341505Y-104724298D01*
X84055372Y-104611010D01*
X84055371Y-104611010D01*
X84051702Y-104609557D01*
X83745975Y-104531060D01*
X83432821Y-104491500D01*
X83117179Y-104491500D01*
X82804025Y-104531060D01*
X82498298Y-104609557D01*
X82494629Y-104611010D01*
X82494628Y-104611010D01*
X82208495Y-104724298D01*
X82208490Y-104724300D01*
X82204821Y-104725753D01*
X81928221Y-104877816D01*
X81672860Y-105063346D01*
X81570753Y-105159231D01*
X81507403Y-105191282D01*
X81436781Y-105183995D01*
X81381310Y-105139684D01*
X81358500Y-105067381D01*
X81358500Y-93732619D01*
X81378502Y-93664498D01*
X81432158Y-93618005D01*
X81502432Y-93607901D01*
X81570753Y-93640769D01*
X81672860Y-93736654D01*
X81928221Y-93922184D01*
X82204821Y-94074247D01*
X82208490Y-94075700D01*
X82208495Y-94075702D01*
X82494628Y-94188990D01*
X82498298Y-94190443D01*
X82804025Y-94268940D01*
X83117179Y-94308500D01*
X83432821Y-94308500D01*
X83745975Y-94268940D01*
X84051702Y-94190443D01*
X84055372Y-94188990D01*
X84341505Y-94075702D01*
X84341510Y-94075700D01*
X84345179Y-94074247D01*
X84621779Y-93922184D01*
X84877140Y-93736654D01*
X85107233Y-93520582D01*
X85109770Y-93517516D01*
X85298083Y-93289885D01*
X85308432Y-93277375D01*
X85477562Y-93010869D01*
X85479246Y-93007290D01*
X85479250Y-93007283D01*
X85610267Y-92728856D01*
X85610269Y-92728852D01*
X85611956Y-92725266D01*
X85621156Y-92696951D01*
X85661229Y-92638345D01*
X85726626Y-92610708D01*
X85796582Y-92622815D01*
G37*
%TD.AperFunction*%
%TA.AperFunction,Conductor*%
G36*
X94108814Y-93502714D02*
G01*
X94139775Y-93566603D01*
X94141500Y-93587381D01*
X94141500Y-105212619D01*
X94121498Y-105280740D01*
X94067842Y-105327233D01*
X93997568Y-105337337D01*
X93932988Y-105307843D01*
X93918415Y-105292933D01*
X93909771Y-105282484D01*
X93909758Y-105282470D01*
X93907233Y-105279418D01*
X93677140Y-105063346D01*
X93421779Y-104877816D01*
X93145179Y-104725753D01*
X93141510Y-104724300D01*
X93141505Y-104724298D01*
X92855372Y-104611010D01*
X92855371Y-104611010D01*
X92851702Y-104609557D01*
X92545975Y-104531060D01*
X92232821Y-104491500D01*
X92070113Y-104491500D01*
X92001992Y-104471498D01*
X91955499Y-104417842D01*
X91945395Y-104347568D01*
X91953704Y-104317283D01*
X91964188Y-104291972D01*
X91964189Y-104291967D01*
X91967349Y-104284339D01*
X91983011Y-104165374D01*
X91983011Y-104165367D01*
X91988261Y-104125489D01*
X91984089Y-104093796D01*
X91983011Y-104077353D01*
X91983011Y-95172647D01*
X91984089Y-95156201D01*
X91987183Y-95132699D01*
X91988261Y-95124511D01*
X91983011Y-95084631D01*
X91983011Y-95084626D01*
X91967349Y-94965661D01*
X91906035Y-94817636D01*
X91906035Y-94817635D01*
X91832989Y-94722440D01*
X91832985Y-94722436D01*
X91832982Y-94722432D01*
X91813527Y-94697077D01*
X91813524Y-94697074D01*
X91808498Y-94690524D01*
X91801943Y-94685494D01*
X91783132Y-94671059D01*
X91770741Y-94660192D01*
X91607247Y-94496698D01*
X91573221Y-94434386D01*
X91578286Y-94363571D01*
X91620833Y-94306735D01*
X91687353Y-94281924D01*
X91712132Y-94282597D01*
X91917179Y-94308500D01*
X92232821Y-94308500D01*
X92545975Y-94268940D01*
X92851702Y-94190443D01*
X92855372Y-94188990D01*
X93141505Y-94075702D01*
X93141510Y-94075700D01*
X93145179Y-94074247D01*
X93421779Y-93922184D01*
X93677140Y-93736654D01*
X93907233Y-93520582D01*
X93909758Y-93517530D01*
X93909771Y-93517516D01*
X93918415Y-93507067D01*
X93977248Y-93467328D01*
X94048226Y-93465705D01*
X94108814Y-93502714D01*
G37*
%TD.AperFunction*%
%TD*%
M02*
