%TF.GenerationSoftware,KiCad,Pcbnew,(6.0.0-0)*%
%TF.CreationDate,2022-01-12T00:44:38+05:30*%
%TF.ProjectId,pre,7072652e-6b69-4636-9164-5f7063625858,rev?*%
%TF.SameCoordinates,Original*%
%TF.FileFunction,Legend,Top*%
%TF.FilePolarity,Positive*%
%FSLAX46Y46*%
G04 Gerber Fmt 4.6, Leading zero omitted, Abs format (unit mm)*
G04 Created by KiCad (PCBNEW (6.0.0-0)) date 2022-01-12 00:44:38*
%MOMM*%
%LPD*%
G01*
G04 APERTURE LIST*
%ADD10C,0.150000*%
%ADD11C,0.120000*%
G04 APERTURE END LIST*
D10*
X79561904Y-127945238D02*
X80133333Y-127945238D01*
X80247619Y-127983333D01*
X80323809Y-128059523D01*
X80361904Y-128173809D01*
X80361904Y-128250000D01*
X80361904Y-127183333D02*
X80361904Y-127564285D01*
X79561904Y-127564285D01*
X80285714Y-126459523D02*
X80323809Y-126497619D01*
X80361904Y-126611904D01*
X80361904Y-126688095D01*
X80323809Y-126802380D01*
X80247619Y-126878571D01*
X80171428Y-126916666D01*
X80019047Y-126954761D01*
X79904761Y-126954761D01*
X79752380Y-126916666D01*
X79676190Y-126878571D01*
X79600000Y-126802380D01*
X79561904Y-126688095D01*
X79561904Y-126611904D01*
X79600000Y-126497619D01*
X79638095Y-126459523D01*
X79561904Y-125888095D02*
X80133333Y-125888095D01*
X80247619Y-125926190D01*
X80323809Y-126002380D01*
X80361904Y-126116666D01*
X80361904Y-126192857D01*
X80361904Y-125126190D02*
X80361904Y-125507142D01*
X79561904Y-125507142D01*
X80285714Y-124402380D02*
X80323809Y-124440476D01*
X80361904Y-124554761D01*
X80361904Y-124630952D01*
X80323809Y-124745238D01*
X80247619Y-124821428D01*
X80171428Y-124859523D01*
X80019047Y-124897619D01*
X79904761Y-124897619D01*
X79752380Y-124859523D01*
X79676190Y-124821428D01*
X79600000Y-124745238D01*
X79561904Y-124630952D01*
X79561904Y-124554761D01*
X79600000Y-124440476D01*
X79638095Y-124402380D01*
X79561904Y-123830952D02*
X80133333Y-123830952D01*
X80247619Y-123869047D01*
X80323809Y-123945238D01*
X80361904Y-124059523D01*
X80361904Y-124135714D01*
X80361904Y-123069047D02*
X80361904Y-123450000D01*
X79561904Y-123450000D01*
X80285714Y-122345238D02*
X80323809Y-122383333D01*
X80361904Y-122497619D01*
X80361904Y-122573809D01*
X80323809Y-122688095D01*
X80247619Y-122764285D01*
X80171428Y-122802380D01*
X80019047Y-122840476D01*
X79904761Y-122840476D01*
X79752380Y-122802380D01*
X79676190Y-122764285D01*
X79600000Y-122688095D01*
X79561904Y-122573809D01*
X79561904Y-122497619D01*
X79600000Y-122383333D01*
X79638095Y-122345238D01*
X79561904Y-121773809D02*
X80133333Y-121773809D01*
X80247619Y-121811904D01*
X80323809Y-121888095D01*
X80361904Y-122002380D01*
X80361904Y-122078571D01*
X80361904Y-121011904D02*
X80361904Y-121392857D01*
X79561904Y-121392857D01*
X80285714Y-120288095D02*
X80323809Y-120326190D01*
X80361904Y-120440476D01*
X80361904Y-120516666D01*
X80323809Y-120630952D01*
X80247619Y-120707142D01*
X80171428Y-120745238D01*
X80019047Y-120783333D01*
X79904761Y-120783333D01*
X79752380Y-120745238D01*
X79676190Y-120707142D01*
X79600000Y-120630952D01*
X79561904Y-120516666D01*
X79561904Y-120440476D01*
X79600000Y-120326190D01*
X79638095Y-120288095D01*
%TO.C,Out2*%
X89265476Y-117452380D02*
X89455952Y-117452380D01*
X89551190Y-117500000D01*
X89646428Y-117595238D01*
X89694047Y-117785714D01*
X89694047Y-118119047D01*
X89646428Y-118309523D01*
X89551190Y-118404761D01*
X89455952Y-118452380D01*
X89265476Y-118452380D01*
X89170238Y-118404761D01*
X89075000Y-118309523D01*
X89027380Y-118119047D01*
X89027380Y-117785714D01*
X89075000Y-117595238D01*
X89170238Y-117500000D01*
X89265476Y-117452380D01*
X90551190Y-117785714D02*
X90551190Y-118452380D01*
X90122619Y-117785714D02*
X90122619Y-118309523D01*
X90170238Y-118404761D01*
X90265476Y-118452380D01*
X90408333Y-118452380D01*
X90503571Y-118404761D01*
X90551190Y-118357142D01*
X90884523Y-117785714D02*
X91265476Y-117785714D01*
X91027380Y-117452380D02*
X91027380Y-118309523D01*
X91075000Y-118404761D01*
X91170238Y-118452380D01*
X91265476Y-118452380D01*
X91551190Y-117547619D02*
X91598809Y-117500000D01*
X91694047Y-117452380D01*
X91932142Y-117452380D01*
X92027380Y-117500000D01*
X92075000Y-117547619D01*
X92122619Y-117642857D01*
X92122619Y-117738095D01*
X92075000Y-117880952D01*
X91503571Y-118452380D01*
X92122619Y-118452380D01*
%TO.C,IN2*%
X89275000Y-60202380D02*
X89275000Y-59202380D01*
X89751190Y-60202380D02*
X89751190Y-59202380D01*
X90322619Y-60202380D01*
X90322619Y-59202380D01*
X90751190Y-59297619D02*
X90798809Y-59250000D01*
X90894047Y-59202380D01*
X91132142Y-59202380D01*
X91227380Y-59250000D01*
X91275000Y-59297619D01*
X91322619Y-59392857D01*
X91322619Y-59488095D01*
X91275000Y-59630952D01*
X90703571Y-60202380D01*
X91322619Y-60202380D01*
%TO.C,IN1*%
X79250000Y-60202380D02*
X79250000Y-59202380D01*
X79726190Y-60202380D02*
X79726190Y-59202380D01*
X80297619Y-60202380D01*
X80297619Y-59202380D01*
X81297619Y-60202380D02*
X80726190Y-60202380D01*
X81011904Y-60202380D02*
X81011904Y-59202380D01*
X80916666Y-59345238D01*
X80821428Y-59440476D01*
X80726190Y-59488095D01*
%TO.C,Out1*%
X79190476Y-117452380D02*
X79380952Y-117452380D01*
X79476190Y-117500000D01*
X79571428Y-117595238D01*
X79619047Y-117785714D01*
X79619047Y-118119047D01*
X79571428Y-118309523D01*
X79476190Y-118404761D01*
X79380952Y-118452380D01*
X79190476Y-118452380D01*
X79095238Y-118404761D01*
X79000000Y-118309523D01*
X78952380Y-118119047D01*
X78952380Y-117785714D01*
X79000000Y-117595238D01*
X79095238Y-117500000D01*
X79190476Y-117452380D01*
X80476190Y-117785714D02*
X80476190Y-118452380D01*
X80047619Y-117785714D02*
X80047619Y-118309523D01*
X80095238Y-118404761D01*
X80190476Y-118452380D01*
X80333333Y-118452380D01*
X80428571Y-118404761D01*
X80476190Y-118357142D01*
X80809523Y-117785714D02*
X81190476Y-117785714D01*
X80952380Y-117452380D02*
X80952380Y-118309523D01*
X81000000Y-118404761D01*
X81095238Y-118452380D01*
X81190476Y-118452380D01*
X82047619Y-118452380D02*
X81476190Y-118452380D01*
X81761904Y-118452380D02*
X81761904Y-117452380D01*
X81666666Y-117595238D01*
X81571428Y-117690476D01*
X81476190Y-117738095D01*
D11*
%TO.C,Out2*%
X92440000Y-115670000D02*
X92440000Y-116470000D01*
X92440000Y-115670000D02*
X93300000Y-115670000D01*
X93500000Y-123150000D02*
G75*
G03*
X93500000Y-123150000I0J0D01*
G01*
X95300000Y-123150000D02*
G75*
G03*
X95300000Y-123150000I-1800000J0D01*
G01*
%TO.C,RV2*%
X86046000Y-113120000D02*
X86805000Y-113120000D01*
X92695000Y-104816000D02*
X92695000Y-100880000D01*
X82654000Y-113120000D02*
X82654000Y-109183000D01*
X91045000Y-113120000D02*
X92695000Y-113120000D01*
X82654000Y-104816000D02*
X82654000Y-100880000D01*
X92695000Y-113120000D02*
X92695000Y-109183000D01*
X82654000Y-113120000D02*
X84304000Y-113120000D01*
X82654000Y-100880000D02*
X92695000Y-100880000D01*
X88546000Y-113120000D02*
X89305000Y-113120000D01*
X87675001Y-106500000D02*
G75*
G03*
X87675001Y-106500000I-1J0D01*
G01*
%TO.C,RV1*%
X86046000Y-97920000D02*
X86805000Y-97920000D01*
X92695000Y-89616000D02*
X92695000Y-85680000D01*
X82654000Y-97920000D02*
X82654000Y-93983000D01*
X91045000Y-97920000D02*
X92695000Y-97920000D01*
X82654000Y-89616000D02*
X82654000Y-85680000D01*
X92695000Y-97920000D02*
X92695000Y-93983000D01*
X82654000Y-97920000D02*
X84304000Y-97920000D01*
X82654000Y-85680000D02*
X92695000Y-85680000D01*
X88546000Y-97920000D02*
X89305000Y-97920000D01*
X87675001Y-91300000D02*
G75*
G03*
X87675001Y-91300000I-1J0D01*
G01*
%TO.C,LED2*%
X91832665Y-74828608D02*
G75*
G03*
X95065000Y-74985516I1672335J1078608D01*
G01*
X95065000Y-72514484D02*
G75*
G03*
X91832665Y-72671392I-1560000J-1235516D01*
G01*
X92463870Y-74829837D02*
G75*
G03*
X94545961Y-74830000I1041130J1079837D01*
G01*
X94545961Y-72670000D02*
G75*
G03*
X92463870Y-72670163I-1040961J-1080000D01*
G01*
X95065000Y-74986000D02*
X95065000Y-74830000D01*
X95065000Y-72670000D02*
X95065000Y-72514000D01*
%TO.C,LED1*%
X84917335Y-72671392D02*
G75*
G03*
X81685000Y-72514484I-1672335J-1078608D01*
G01*
X81685000Y-74985516D02*
G75*
G03*
X84917335Y-74828608I1560000J1235516D01*
G01*
X84286130Y-72670163D02*
G75*
G03*
X82204039Y-72670000I-1041130J-1079837D01*
G01*
X82204039Y-74830000D02*
G75*
G03*
X84286130Y-74829837I1040961J1080000D01*
G01*
X81685000Y-72514000D02*
X81685000Y-72670000D01*
X81685000Y-74830000D02*
X81685000Y-74986000D01*
%TO.C,IN2*%
X92440000Y-57370000D02*
X92440000Y-58170000D01*
X92440000Y-57370000D02*
X93300000Y-57370000D01*
X93500000Y-64850000D02*
G75*
G03*
X93500000Y-64850000I0J0D01*
G01*
X95300000Y-64850000D02*
G75*
G03*
X95300000Y-64850000I-1800000J0D01*
G01*
%TO.C,IN1*%
X81940000Y-57370000D02*
X81940000Y-58170000D01*
X81940000Y-57370000D02*
X82800000Y-57370000D01*
X83000000Y-64850000D02*
G75*
G03*
X83000000Y-64850000I0J0D01*
G01*
X84800000Y-64850000D02*
G75*
G03*
X84800000Y-64850000I-1800000J0D01*
G01*
%TO.C,Out1*%
X84800000Y-123150000D02*
G75*
G03*
X84800000Y-123150000I-1800000J0D01*
G01*
X83000000Y-123150000D02*
G75*
G03*
X83000000Y-123150000I0J0D01*
G01*
X81940000Y-115670000D02*
X82800000Y-115670000D01*
X81940000Y-115670000D02*
X81940000Y-116470000D01*
%TD*%
M02*
