M48
; DRILL file {KiCad (6.0.0-0)} date 2022 January 12, Wednesday 00:44:41
; FORMAT={-:-/ absolute / inch / decimal}
; #@! TF.CreationDate,2022-01-12T00:44:41+05:30
; #@! TF.GenerationSoftware,Kicad,Pcbnew,(6.0.0-0)
; #@! TF.FileFunction,Plated,1,2,PTH
FMAT,2
INCH
; #@! TA.AperFunction,Plated,PTH,ViaDrill
T1C0.0157
; #@! TA.AperFunction,Plated,PTH,ComponentDrill
T2C0.0354
; #@! TA.AperFunction,Plated,PTH,ComponentDrill
T3C0.0394
; #@! TA.AperFunction,Plated,PTH,ComponentDrill
T4C0.0472
; #@! TA.AperFunction,Plated,PTH,ComponentDrill
T5C0.0563
%
G90
G05
T1
X3.1299Y-2.2736
X3.1299Y-5.2165
X3.1299Y-5.3937
X3.1398Y-4.498
X3.1398Y-5.0886
X3.1693Y-3.1496
X3.1988Y-2.8346
X3.2283Y-4.0453
X3.2382Y-4.3504
X3.248Y-4.8228
X3.2533Y-3.3321
X3.2795Y-3.1811
X3.2972Y-2.8346
X3.2972Y-4.9213
X3.3169Y-3.7697
X3.3563Y-2.9626
X3.4252Y-2.2736
X3.4252Y-4.2126
X3.4437Y-3.0953
X3.4449Y-4.8622
X3.4547Y-3.7008
X3.461Y-2.9071
X3.4843Y-3.1496
X3.4843Y-3.2677
X3.4941Y-4.0453
X3.4941Y-4.2717
X3.5039Y-4.813
X3.5138Y-4.5866
X3.5531Y-2.2736
X3.5535Y-2.9555
X3.5807Y-3.0028
X3.6122Y-3.1201
X3.6122Y-3.4941
X3.6811Y-3.2874
X3.6811Y-3.8976
X3.6811Y-4.0059
X3.75Y-4.5965
X3.75Y-4.9803
X3.7894Y-2.2736
X3.7992Y-5.2165
X3.7992Y-5.3937
T2
X3.2274Y-2.9035
X3.3274Y-2.9035
X3.6313Y-2.9035
X3.7313Y-2.9035
T3
X3.2766Y-5.2618
X3.2766Y-5.3618
X3.3533Y-3.8898
X3.3533Y-4.4882
X3.3766Y-5.2618
X3.3766Y-5.3618
X3.4518Y-3.8898
X3.4518Y-4.4882
X3.4766Y-5.2618
X3.4766Y-5.3618
X3.5502Y-3.8898
X3.5502Y-4.4882
X3.5766Y-5.2618
X3.5766Y-5.3618
X3.6766Y-5.2618
X3.6766Y-5.3618
T4
X3.2677Y-2.298
X3.2677Y-2.4201
X3.2677Y-4.5933
X3.2677Y-4.7154
X3.6811Y-2.298
X3.6811Y-2.4201
X3.6811Y-4.5933
X3.6811Y-4.7154
T5
X3.2677Y-2.7469
X3.2677Y-5.0421
X3.6811Y-2.7469
X3.6811Y-5.0421
T0
M30
