%TF.GenerationSoftware,KiCad,Pcbnew,(6.0.0-0)*%
%TF.CreationDate,2022-01-12T00:44:38+05:30*%
%TF.ProjectId,pre,7072652e-6b69-4636-9164-5f7063625858,rev?*%
%TF.SameCoordinates,Original*%
%TF.FileFunction,Soldermask,Top*%
%TF.FilePolarity,Negative*%
%FSLAX46Y46*%
G04 Gerber Fmt 4.6, Leading zero omitted, Abs format (unit mm)*
G04 Created by KiCad (PCBNEW (6.0.0-0)) date 2022-01-12 00:44:38*
%MOMM*%
%LPD*%
G01*
G04 APERTURE LIST*
%ADD10C,0.500000*%
%ADD11R,1.930000X1.830000*%
%ADD12C,2.130000*%
%ADD13C,4.000000*%
%ADD14C,1.800000*%
%ADD15R,1.800000X1.800000*%
%ADD16R,1.700000X1.700000*%
%ADD17O,1.700000X1.700000*%
G04 APERTURE END LIST*
D10*
X78575000Y-40250000D02*
X78575000Y-138250000D01*
X97167893Y-139050000D02*
G75*
G03*
X97967893Y-138250000I-1J800001D01*
G01*
X78575000Y-138250000D02*
G75*
G03*
X79375000Y-139050000I800001J1D01*
G01*
X97967893Y-40250000D02*
X97967893Y-138250000D01*
X97167893Y-39450000D02*
X79375000Y-39450000D01*
X97967893Y-40250000D02*
G75*
G03*
X97167893Y-39450000I-800001J-1D01*
G01*
X79375000Y-139050000D02*
X97167893Y-139050000D01*
X79375000Y-39450000D02*
G75*
G03*
X78575000Y-40250000I1J-800001D01*
G01*
D11*
%TO.C,Out2*%
X93500000Y-116670000D03*
D12*
X93500000Y-128070000D03*
X93500000Y-119770000D03*
%TD*%
D13*
%TO.C,RV2*%
X92075000Y-107000000D03*
X83275000Y-107000000D03*
D14*
X90175000Y-114000000D03*
X87675000Y-114000000D03*
X85175000Y-114000000D03*
%TD*%
D13*
%TO.C,RV1*%
X92075000Y-91800000D03*
X83275000Y-91800000D03*
D14*
X90175000Y-98800000D03*
X87675000Y-98800000D03*
X85175000Y-98800000D03*
%TD*%
D15*
%TO.C,LED2*%
X94775000Y-73750000D03*
D14*
X92235000Y-73750000D03*
%TD*%
D15*
%TO.C,LED1*%
X81975000Y-73750000D03*
D14*
X84515000Y-73750000D03*
%TD*%
D16*
%TO.C,J5*%
X83225000Y-133650000D03*
D17*
X83225000Y-136190000D03*
X85765000Y-133650000D03*
X85765000Y-136190000D03*
X88305000Y-133650000D03*
X88305000Y-136190000D03*
X90845000Y-133650000D03*
X90845000Y-136190000D03*
X93385000Y-133650000D03*
X93385000Y-136190000D03*
%TD*%
D11*
%TO.C,IN2*%
X93500000Y-58370000D03*
D12*
X93500000Y-69770000D03*
X93500000Y-61470000D03*
%TD*%
D11*
%TO.C,IN1*%
X83000000Y-58370000D03*
D12*
X83000000Y-69770000D03*
X83000000Y-61470000D03*
%TD*%
%TO.C,Out1*%
X83000000Y-119770000D03*
X83000000Y-128070000D03*
D11*
X83000000Y-116670000D03*
%TD*%
M02*
